<svg xmlns="http://www.w3.org/2000/svg" xmlns:xlink="http://www.w3.org/1999/xlink" width="420" zoomAndPan="magnify" viewBox="0 0 315 314.999992" height="420" preserveAspectRatio="xMidYMid meet" version="1.0"><defs><clipPath id="34274e7ffb"><path d="M 90.65625 31.5 L 224.109375 31.5 L 224.109375 283.328125 L 90.65625 283.328125 Z M 90.65625 31.5 " clip-rule="nonzero"/></clipPath></defs><g clip-path="url(#34274e7ffb)"><path fill="#ff9551" d="M 143.53125 259.054688 L 143.300781 258.894531 L 143.25 259.160156 Z M 150.96875 87.792969 C 150.703125 87.667969 150.457031 87.527344 150.191406 87.457031 C 150.105469 87.441406 149.894531 87.652344 149.894531 87.738281 C 149.894531 87.863281 150.085938 88.074219 150.175781 88.074219 C 150.4375 88.023438 150.703125 87.898438 150.96875 87.792969 Z M 136.796875 266.636719 C 136.710938 266.515625 136.585938 266.304688 136.515625 266.320312 C 136.25 266.375 136.003906 266.515625 135.742188 266.621094 C 135.847656 266.746094 135.96875 266.957031 136.039062 266.9375 C 136.304688 266.886719 136.550781 266.746094 136.796875 266.636719 Z M 147.230469 41.46875 C 147.371094 41.378906 147.511719 41.308594 147.65625 41.21875 C 147.53125 41.113281 147.425781 40.9375 147.285156 40.921875 C 146.84375 40.851562 146.648438 41.027344 146.808594 41.324219 C 146.863281 41.414062 147.089844 41.414062 147.230469 41.46875 Z M 155.199219 147.382812 C 155.109375 147.277344 154.984375 147.066406 154.898438 147.066406 C 154.632812 147.136719 154.386719 147.277344 154.121094 147.382812 C 154.226562 147.492188 154.351562 147.703125 154.441406 147.683594 C 154.703125 147.632812 154.949219 147.492188 155.199219 147.382812 Z M 147.671875 231.9375 C 147.917969 232.042969 148.164062 232.203125 148.449219 232.273438 C 148.519531 232.292969 148.660156 232.078125 148.78125 231.972656 C 148.519531 231.832031 148.253906 231.691406 147.988281 231.601562 C 147.917969 231.585938 147.777344 231.816406 147.671875 231.9375 Z M 144.445312 231.957031 C 144.199219 231.832031 143.953125 231.691406 143.6875 231.621094 C 143.601562 231.601562 143.460938 231.796875 143.355469 231.902344 C 143.601562 232.027344 143.847656 232.167969 144.128906 232.238281 C 144.199219 232.257812 144.339844 232.0625 144.445312 231.957031 Z M 161.753906 230.863281 C 161.859375 230.984375 161.984375 231.214844 162.070312 231.199219 C 162.351562 231.144531 162.617188 231.003906 162.882812 230.898438 C 162.777344 230.773438 162.652344 230.542969 162.582031 230.5625 C 162.300781 230.617188 162.035156 230.757812 161.753906 230.863281 Z M 127.246094 265.542969 C 127.332031 264.890625 127.421875 264.398438 127.457031 263.921875 C 127.457031 263.796875 127.226562 263.515625 127.191406 263.535156 C 126.644531 263.746094 126.644531 264.238281 126.679688 264.699219 C 126.71875 264.945312 126.980469 265.15625 127.246094 265.542969 Z M 147.972656 255.472656 C 147.847656 255.207031 147.726562 254.941406 147.601562 254.679688 C 147.335938 254.855469 147.039062 254.996094 146.808594 255.207031 C 146.472656 255.507812 146.492188 255.824219 146.84375 255.984375 C 147.371094 256.230469 147.707031 255.929688 147.972656 255.472656 Z M 153.011719 76.253906 C 153.171875 75.921875 153.066406 75.621094 152.640625 75.601562 C 152.359375 75.585938 151.972656 75.742188 151.832031 75.957031 C 151.707031 76.148438 151.777344 76.695312 151.917969 76.765625 C 152.429688 77.066406 152.730469 76.625 153.011719 76.253906 Z M 147.847656 251.519531 C 148.253906 252.03125 148.78125 251.996094 149.3125 251.871094 C 149.453125 251.820312 149.714844 251.625 149.699219 251.554688 C 149.539062 250.921875 148.992188 250.957031 148.535156 251.027344 C 148.289062 251.078125 148.078125 251.363281 147.847656 251.519531 Z M 101.25 243.5625 C 100.792969 243.988281 100.296875 244.253906 100.15625 244.640625 C 99.910156 245.328125 100.507812 245.453125 101.019531 245.46875 C 101.515625 245.488281 102.148438 245.382812 102.148438 244.835938 C 102.132812 244.445312 101.621094 244.058594 101.25 243.5625 Z M 114.960938 234.125 C 116.6875 234.867188 118.011719 234.832031 119.753906 234.089844 C 118.097656 233.542969 116.847656 233.316406 114.960938 234.125 Z M 102.996094 242.523438 C 103.222656 243.210938 103.628906 243.742188 104.351562 243.792969 C 104.457031 243.8125 104.703125 242.945312 104.738281 242.488281 C 104.757812 241.941406 104.386719 241.5 103.824219 241.535156 C 103.292969 241.570312 102.960938 241.941406 102.996094 242.523438 Z M 136.886719 268.808594 C 136.394531 268.527344 136.25 268.386719 136.09375 268.351562 C 135.265625 268.191406 134.417969 268.050781 133.574219 267.910156 C 133.554688 268.207031 133.414062 268.667969 133.554688 268.808594 C 134.277344 269.480469 135.230469 269.300781 136.109375 269.230469 C 136.269531 269.214844 136.429688 269.074219 136.886719 268.808594 Z M 123 267.183594 C 122.804688 266.9375 122.644531 266.496094 122.417969 266.445312 C 121.375 266.269531 120.796875 266.992188 120.390625 267.769531 C 120.125 268.277344 120.441406 268.878906 121.058594 268.683594 C 121.835938 268.4375 122.769531 268.226562 123 267.183594 Z M 133.132812 230.722656 C 134.226562 230.652344 135.054688 230.457031 135.828125 230.582031 C 136.570312 230.703125 137.222656 231.019531 137.292969 229.925781 C 137.378906 228.796875 136.675781 228.339844 135.6875 228.339844 C 134.523438 228.355469 133.695312 228.941406 133.132812 230.722656 Z M 133.414062 233.878906 C 131.808594 235.21875 130.417969 236.773438 127.808594 237.390625 C 131.898438 239.101562 131.898438 239.101562 133.414062 233.878906 Z M 196.914062 89.449219 C 196.808594 88.976562 196.792969 88.445312 196.578125 88.023438 C 196.457031 87.757812 196.070312 87.933594 196.070312 88.355469 C 196.070312 88.921875 196.472656 89.222656 196.984375 89.378906 C 197.265625 90.035156 197.953125 90.738281 198.308594 90.035156 C 198.605469 89.414062 197.425781 89.644531 196.914062 89.449219 Z M 101.691406 247.691406 C 101.550781 247.746094 101.375 247.78125 101.25 247.867188 C 101.179688 247.921875 101.179688 248.0625 101.125 248.167969 C 101.300781 247.992188 101.460938 247.816406 101.621094 247.640625 C 101.777344 247.570312 101.953125 247.535156 102.078125 247.445312 C 102.148438 247.375 102.167969 247.214844 102.203125 247.109375 C 102.023438 247.304688 101.867188 247.496094 101.691406 247.691406 Z M 148.199219 71.015625 C 149.101562 70.75 150.984375 70.75 149.644531 69.289062 C 147.691406 67.152344 147.707031 64.367188 146.492188 62.019531 C 145.945312 60.976562 145.875 59.972656 146.984375 59.179688 C 147.371094 58.898438 147.917969 58.332031 147.109375 58.101562 C 143.636719 57.132812 146.492188 55.863281 147.003906 54.875 C 147.265625 54.328125 148.113281 54.0625 148.941406 53.535156 C 147.832031 52.085938 144.515625 52.40625 145.433594 50.375 C 146.03125 49.070312 143.6875 47.253906 146.316406 46.582031 C 147.441406 46.285156 146.71875 45.488281 146.210938 45.101562 C 144.660156 43.917969 143.972656 42.347656 143.902344 40.460938 C 143.8125 38.449219 143.671875 36.667969 146.402344 35.894531 C 147.953125 35.453125 149.539062 34.289062 150.652344 32.753906 C 151.390625 31.746094 152.519531 31.339844 153.980469 31.535156 C 157.523438 32.011719 157.523438 32.082031 158.054688 35.644531 C 158.933594 41.398438 161.347656 46.335938 165.121094 50.957031 C 168.363281 54.925781 171.976562 58.578125 175.5 62.214844 C 180.558594 67.417969 186.585938 71.652344 191.855469 76.660156 C 196.632812 81.210938 202.21875 84.828125 206.238281 90.296875 C 208.667969 93.597656 211.226562 96.894531 213.851562 100.019531 C 217.164062 103.953125 217.921875 108.980469 220.511719 113.019531 C 222.417969 116.019531 220.832031 118.734375 221.554688 121.523438 C 222.609375 125.667969 223.210938 129.9375 223.878906 134.1875 C 224.109375 135.601562 224.214844 137.117188 223.933594 138.492188 C 222.417969 145.796875 221.765625 153.277344 219.71875 160.457031 C 218.34375 165.273438 217.816406 170.441406 216.035156 174.941406 C 212.988281 182.613281 210.574219 190.746094 205.410156 197.503906 C 205.304688 197.644531 205.179688 197.769531 205.074219 197.910156 C 204.386719 198.914062 203.824219 200.609375 202.324219 199.742188 C 200.984375 198.984375 200.121094 197.609375 200.703125 195.652344 C 201.902344 191.558594 203.839844 187.765625 205.460938 183.847656 C 206.871094 180.425781 208.5625 177.144531 210.132812 173.8125 C 210.203125 173.652344 210.328125 173.476562 210.308594 173.300781 C 210.273438 169.222656 212.035156 165.589844 213.144531 161.796875 C 213.394531 160.949219 213.253906 159.910156 213.675781 159.1875 C 216.902344 153.734375 217.605469 147.753906 217.550781 141.582031 C 217.535156 139.800781 217.234375 137.929688 218.699219 136.464844 C 219.066406 136.09375 219.472656 135.511719 219.085938 135.035156 C 216.988281 132.40625 218.257812 129.585938 218.539062 126.832031 C 218.644531 125.722656 218.523438 124.75 217.394531 124.046875 C 215.367188 122.808594 215.136719 121.027344 215.050781 118.628906 C 214.890625 114.960938 215.261719 110.515625 210.132812 108.925781 C 209.144531 108.628906 209.09375 106.808594 211.085938 106.527344 C 211.703125 106.441406 211.949219 104.992188 211.296875 105.292969 C 208.882812 106.402344 208.667969 102.699219 206.660156 103.457031 L 206.730469 103.527344 C 206.765625 102.136719 206.027344 101.289062 205.023438 100.371094 C 203.222656 98.710938 200.898438 97.601562 199.523438 95.394531 C 201.304688 94.265625 203.292969 95.484375 204.898438 94.371094 C 204.050781 93.421875 202.890625 93.683594 201.917969 93.753906 C 199.1875 93.96875 203.011719 91.710938 201.054688 91.636719 C 199.824219 91.601562 199.066406 92.292969 198.21875 92.980469 C 197.671875 93.402344 197.355469 92.980469 196.914062 92.660156 C 193.300781 90.070312 189.722656 87.386719 185.96875 84.96875 C 181.6875 82.199219 178.179688 78.40625 173.316406 76.308594 C 170.355469 75.039062 167.886719 72.496094 165.402344 70.292969 C 163.394531 68.527344 161.332031 66.921875 158.511719 65.476562 C 158.125 68.742188 157.347656 71.441406 158 74.527344 C 158.933594 78.9375 160.449219 83.398438 158.28125 88.003906 C 157.402344 89.875 159.339844 91.710938 159.234375 93.738281 C 159.179688 94.761719 160.292969 96.296875 159.902344 96.738281 C 157.261719 99.734375 159.339844 102.753906 159.5 105.75 C 159.796875 111.132812 159.320312 116.496094 159.515625 121.894531 C 159.867188 131.914062 160.027344 141.949219 160.503906 151.972656 C 160.644531 154.933594 160.414062 157.863281 159.746094 160.84375 C 159.460938 162.113281 158.5625 164.355469 160.695312 166.101562 C 161.699219 166.929688 161.171875 169.753906 161.15625 171.675781 C 161.15625 173.105469 162.089844 174.480469 160.820312 176.105469 C 160.292969 176.757812 159.304688 178.910156 160.75 180.019531 C 161.949219 180.957031 161.71875 181.75 161.15625 182.738281 C 159.796875 185.117188 160.007812 187.414062 160.996094 189.96875 C 161.738281 191.859375 162.636719 194.011719 161.207031 196.128906 C 160.925781 196.550781 160.730469 197.222656 160.855469 197.679688 C 162.53125 204.648438 160.90625 211.722656 161.683594 218.707031 C 163.746094 220.59375 162.300781 223.71875 164.117188 225.710938 C 164.238281 225.835938 164.292969 226.027344 164.328125 226.1875 C 164.785156 228.902344 163.464844 231.691406 163.9375 234.125 C 164.519531 236.929688 164.257812 239.242188 162.671875 241.21875 C 161.261719 242.929688 162.847656 245.152344 161.242188 246.582031 C 159.761719 247.886719 159.515625 249.757812 159.214844 251.433594 C 158.035156 258.222656 153.1875 262.15625 148.148438 265.878906 C 147.160156 266.601562 146.4375 266.726562 146.914062 268.085938 C 147.160156 268.824219 146.527344 269.496094 145.960938 269.917969 C 142.71875 272.320312 139.546875 274.824219 136.164062 277.011719 C 129.960938 281.015625 122.433594 280.894531 115.667969 283.1875 C 114.890625 283.449219 113.867188 283.273438 113.023438 283.042969 C 107.875 281.546875 103.066406 279.234375 98.289062 276.835938 C 95.046875 275.195312 94.042969 271.824219 92.878906 268.703125 C 91.238281 264.292969 89.777344 259.847656 91.292969 254.976562 C 91.804688 253.371094 92.472656 252.050781 93.601562 250.851562 C 94.800781 249.5625 96.140625 248.257812 95.539062 246.15625 C 95.453125 245.839844 95.363281 245.273438 95.523438 245.152344 C 99.785156 241.976562 101.972656 236.472656 107.472656 234.65625 C 109.832031 233.878906 111.648438 232.113281 113.605469 230.5625 C 121.484375 224.316406 130.347656 221.019531 140.515625 223.277344 C 143.320312 223.894531 146.246094 223.542969 148.957031 224.828125 C 150.175781 225.394531 151.566406 224.511719 151.355469 222.851562 C 150.878906 219.042969 152.90625 215.125 150.808594 211.386719 C 150.296875 210.46875 151.214844 209.65625 151.230469 208.828125 C 151.230469 206.375 154.371094 204.1875 151.671875 201.453125 C 150.949219 200.730469 154.140625 199.65625 152.0625 198.242188 C 155.445312 197.292969 153.824219 196.320312 152.113281 195.226562 C 151.777344 195.015625 151.65625 194.292969 151.636719 193.78125 C 151.585938 192.703125 152.871094 192.511719 153.207031 191.753906 C 153.929688 190.074219 151.902344 191.257812 151.726562 190.445312 C 151.515625 189.386719 152.359375 188.859375 152.871094 188.171875 C 153.929688 186.722656 154.175781 184.660156 153.46875 183.53125 C 151.9375 181.0625 153.03125 178.484375 152.414062 176.070312 C 151.761719 173.441406 152.238281 171.21875 153.964844 169.152344 C 154.226562 168.835938 153.929688 167.582031 153.503906 167.265625 C 149.980469 164.53125 153.1875 160.863281 152.097656 157.828125 C 154.828125 155.234375 153.136719 153.488281 150.984375 152.253906 C 150.863281 150.59375 153.804688 151.742188 152.554688 150.296875 C 151.53125 149.113281 150.542969 148.65625 151.988281 147.277344 L 151.726562 144.632812 C 151.144531 143.414062 153.207031 141.652344 150.933594 140.804688 C 152.800781 139.234375 150.933594 137.699219 150.933594 136.148438 C 150.933594 134.402344 151.160156 132.636719 150.175781 131.050781 C 149.714844 130.289062 150 129.847656 150.632812 129.300781 C 151.285156 128.71875 150.210938 128.578125 150.121094 128.207031 C 149.804688 126.902344 151.003906 127.589844 151.460938 127.292969 C 152.21875 126.761719 151.707031 126.480469 151.320312 126.214844 C 148.710938 124.414062 148.5 122.210938 150.367188 119.828125 C 151.160156 118.839844 150.226562 118.804688 149.875 118.347656 C 149.101562 117.324219 149.222656 116.335938 150.226562 115.542969 C 150.808594 115.082031 151.53125 114.097656 150.878906 113.917969 C 147.003906 112.824219 150.792969 109.933594 149.363281 108.0625 C 147.832031 106.050781 150.246094 103.160156 148.695312 100.828125 C 150.015625 94.972656 147.972656 89.257812 147.847656 83.433594 C 147.832031 82.464844 147.65625 81.652344 148.535156 81.140625 C 152.167969 79.023438 148.535156 78.882812 147.671875 77.949219 C 148.800781 76.378906 149.382812 74.402344 151.109375 73.574219 C 151.144531 71.28125 147.40625 73.960938 148.253906 70.964844 L 148.199219 71.015625 " fill-opacity="1" fill-rule="nonzero"/></g><path fill="#ff9551" d="M 206.660156 103.457031 C 206.503906 103.652344 206.34375 103.828125 206.183594 104.023438 C 206.21875 103.917969 206.21875 103.757812 206.289062 103.707031 C 206.414062 103.617188 206.589844 103.582031 206.730469 103.527344 L 206.660156 103.457031 " fill-opacity="1" fill-rule="nonzero"/><path fill="#ff9551" d="M 148.253906 70.964844 C 148.078125 70.785156 147.882812 70.609375 147.691406 70.453125 C 147.8125 70.488281 147.972656 70.488281 148.023438 70.574219 C 148.113281 70.699219 148.148438 70.875 148.199219 71.015625 L 148.253906 70.964844 " fill-opacity="1" fill-rule="nonzero"/></svg>