<svg xmlns="http://www.w3.org/2000/svg" xmlns:xlink="http://www.w3.org/1999/xlink" width="420" zoomAndPan="magnify" viewBox="0 0 315 314.999992" height="420" preserveAspectRatio="xMidYMid meet" version="1.0"><defs><clipPath id="8ea7bf1bea"><path d="M 218 120 L 230.234375 120 L 230.234375 154 L 218 154 Z M 218 120 " clip-rule="nonzero"/></clipPath><clipPath id="a14c5e00db"><path d="M 207 114 L 230.234375 114 L 230.234375 128 L 207 128 Z M 207 114 " clip-rule="nonzero"/></clipPath></defs><path fill="#23d640" d="M 163.914062 251.769531 C 165.761719 257.125 162.925781 262.964844 157.570312 264.820312 C 152.214844 266.671875 146.375 263.832031 144.523438 258.476562 C 142.671875 253.121094 145.507812 247.277344 150.863281 245.425781 C 156.21875 243.574219 162.0625 246.414062 163.914062 251.769531 " fill-opacity="1" fill-rule="nonzero"/><path fill="#23d640" d="M 172.511719 208.390625 L 158.128906 166.796875 C 158.128906 166.796875 174.210938 162.34375 180.539062 180.648438 C 186.871094 198.960938 172.511719 208.390625 172.511719 208.390625 Z M 129.003906 82.167969 C 121.652344 61.304688 125.367188 50.046875 127.742188 49.679688 C 132.125 49 140.429688 64.042969 143.046875 74.042969 C 145.667969 84.050781 134.027344 97.097656 134.027344 97.097656 C 134.027344 97.097656 131.816406 89.679688 129.003906 82.167969 Z M 143.980469 157.425781 C 133.230469 163.03125 123.261719 178.433594 129.125 194.4375 C 136.085938 213.4375 153.414062 210.171875 153.414062 210.171875 C 153.414062 210.171875 137.703125 205.550781 135.296875 191.472656 C 133.707031 182.183594 139.003906 172.761719 148.128906 169.417969 C 150.980469 177.660156 155.058594 189.460938 163.550781 214.007812 C 156.507812 217.914062 122.757812 228.378906 109.757812 196.742188 C 98.269531 168.792969 119.097656 143.539062 133.109375 125.972656 C 133.886719 128.226562 141.109375 149.117188 143.980469 157.425781 Z M 153.871094 153.585938 L 141.042969 116.484375 C 141.042969 116.484375 151.382812 101.734375 150.769531 87.683594 C 149.980469 69.308594 132.152344 37.945312 118.976562 35.382812 C 99.75 31.648438 121.1875 90 121.1875 90 L 126.242188 104.613281 C 126.242188 104.613281 84.75 146.863281 102.503906 198.203125 C 116.492188 238.671875 165.761719 218.90625 165.761719 218.90625 L 173.539062 241.390625 C 173.539062 241.390625 182.71875 263.390625 171.753906 267.179688 C 161.34375 270.78125 156.433594 263.355469 153.726562 258.308594 C 149.988281 251.339844 144.523438 258.476562 144.523438 258.476562 C 144.523438 258.476562 153.132812 283.378906 176.734375 275.210938 C 193.878906 269.28125 186.003906 246.519531 186.003906 246.519531 C 186.003906 246.519531 177.128906 220.851562 174.539062 213.355469 C 186.09375 203.691406 192.289062 189.59375 186.988281 174.433594 C 178.242188 149.140625 153.871094 153.585938 153.871094 153.585938 " fill-opacity="1" fill-rule="nonzero"/><path fill="#23d640" d="M 188.90625 116.769531 L 183.738281 116.769531 L 183.738281 47.6875 L 188.90625 47.6875 L 188.90625 116.769531 " fill-opacity="1" fill-rule="nonzero"/><path fill="#23d640" d="M 188.511719 113.421875 C 190.582031 117.460938 186.832031 123.515625 180.132812 126.949219 C 173.4375 130.382812 166.332031 129.894531 164.261719 125.863281 C 162.191406 121.824219 165.945312 115.773438 172.644531 112.335938 C 179.339844 108.898438 186.445312 109.386719 188.511719 113.421875 " fill-opacity="1" fill-rule="nonzero"/><path fill="#23d640" d="M 183.472656 46.40625 L 188.921875 46.363281 C 188.921875 46.363281 189.089844 52.710938 193.058594 56.640625 C 199.539062 63.054688 205.238281 62.839844 206.699219 71.003906 C 208.34375 80.203125 195.378906 92.84375 195.566406 92.597656 C 195.566406 92.597656 202.683594 85.421875 199.605469 79.574219 C 196.523438 73.726562 193.488281 72.425781 188.347656 65.742188 C 183.195312 59.058594 183.472656 46.40625 183.472656 46.40625 " fill-opacity="1" fill-rule="nonzero"/><path fill="#23d640" d="M 202.5 148.546875 L 200.03125 147.847656 L 209.386719 114.839844 L 211.859375 115.542969 L 202.5 148.546875 " fill-opacity="1" fill-rule="nonzero"/><g clip-path="url(#8ea7bf1bea)"><path fill="#23d640" d="M 220.808594 153.738281 L 218.335938 153.039062 L 227.695312 120.03125 L 230.164062 120.730469 L 220.808594 153.738281 " fill-opacity="1" fill-rule="nonzero"/></g><g clip-path="url(#a14c5e00db)"><path fill="#23d640" d="M 228.210938 127.941406 L 207.351562 122.027344 L 209.386719 114.839844 L 230.25 120.753906 L 228.210938 127.941406 " fill-opacity="1" fill-rule="nonzero"/></g><path fill="#23d640" d="M 227.917969 128.964844 L 207.0625 123.050781 L 206.351562 125.570312 L 227.207031 131.484375 L 227.917969 128.964844 " fill-opacity="1" fill-rule="nonzero"/><path fill="#23d640" d="M 202.683594 146.875 C 203.125 149.082031 200.511719 151.464844 196.84375 152.199219 C 193.183594 152.933594 189.851562 151.738281 189.410156 149.53125 C 188.96875 147.320312 191.582031 144.933594 195.246094 144.199219 C 198.914062 143.46875 202.238281 144.664062 202.683594 146.875 " fill-opacity="1" fill-rule="nonzero"/><path fill="#23d640" d="M 221.070312 152.085938 C 221.511719 154.296875 218.898438 156.683594 215.238281 157.410156 C 211.566406 158.148438 208.242188 156.953125 207.800781 154.742188 C 207.355469 152.535156 209.96875 150.152344 213.632812 149.414062 C 217.300781 148.683594 220.628906 149.878906 221.070312 152.085938 " fill-opacity="1" fill-rule="nonzero"/></svg>