<svg xmlns="http://www.w3.org/2000/svg" xmlns:xlink="http://www.w3.org/1999/xlink" width="420" zoomAndPan="magnify" viewBox="0 0 315 314.999992" height="420" preserveAspectRatio="xMidYMid meet" version="1.0"><rect x="-31.5" width="378" fill="#ffffff" y="-31.499999" height="377.99999" fill-opacity="1"/><rect x="-31.5" width="378" fill="#ffffff" y="-31.499999" height="377.99999" fill-opacity="1"/><path fill="#a826bd" d="M 158.839844 237.007812 L 159.089844 237.203125 L 159.148438 236.929688 Z M 171.242188 254.140625 C 171.066406 254.082031 170.875 253.925781 170.71875 253.964844 C 170.101562 254.082031 170.0625 254.332031 170.621094 254.605469 C 170.777344 254.664062 171.007812 254.605469 171.164062 254.527344 C 171.242188 254.488281 171.222656 254.273438 171.242188 254.140625 Z M 181.050781 251.148438 C 180.972656 251.050781 180.855469 250.796875 180.761719 250.816406 C 180.46875 250.855469 180.179688 250.992188 179.890625 251.089844 C 180.160156 251.226562 180.410156 251.402344 180.703125 251.496094 C 180.78125 251.515625 180.933594 251.285156 181.050781 251.148438 Z M 165.921875 246.738281 C 165.941406 246.894531 165.941406 247.089844 166.019531 247.148438 C 166.171875 247.226562 166.425781 247.300781 166.558594 247.246094 C 167.0625 247.03125 167.003906 246.757812 166.441406 246.605469 C 166.289062 246.566406 166.09375 246.699219 165.921875 246.738281 Z M 160.019531 243.109375 C 159.902344 242.972656 159.789062 242.71875 159.691406 242.71875 C 159.363281 242.777344 159.070312 242.914062 158.761719 243.011719 C 158.878906 243.144531 158.996094 243.398438 159.089844 243.378906 C 159.421875 243.339844 159.710938 243.203125 160.019531 243.109375 Z M 162.246094 272.996094 C 162.378906 272.902344 162.632812 272.765625 162.632812 272.707031 C 162.574219 272.394531 162.417969 272.105469 162.304688 271.8125 C 162.167969 271.929688 161.917969 272.046875 161.933594 272.125 C 161.992188 272.433594 162.128906 272.707031 162.246094 272.996094 Z M 141.988281 272.203125 C 141.890625 272.066406 141.832031 271.851562 141.71875 271.8125 C 141.5625 271.753906 141.292969 271.753906 141.175781 271.851562 C 140.828125 272.125 140.945312 272.375 141.503906 272.414062 C 141.640625 272.433594 141.816406 272.277344 141.988281 272.203125 Z M 161.394531 233.746094 C 161.375 233.609375 161.375 233.417969 161.296875 233.378906 C 161.140625 233.28125 160.910156 233.203125 160.753906 233.261719 C 160.289062 233.472656 160.328125 233.726562 160.890625 233.882812 C 161.046875 233.921875 161.238281 233.804688 161.394531 233.746094 Z M 165.03125 233.824219 C 164.953125 233.6875 164.894531 233.492188 164.761719 233.433594 C 164.605469 233.378906 164.335938 233.359375 164.21875 233.453125 C 163.851562 233.746094 163.984375 234 164.527344 234.058594 C 164.683594 234.078125 164.855469 233.921875 165.03125 233.824219 Z M 177.972656 263.152344 C 177.898438 263.304688 177.761719 263.5 177.78125 263.65625 C 177.917969 264.257812 178.1875 264.296875 178.457031 263.734375 C 178.515625 263.597656 178.457031 263.363281 178.378906 263.230469 C 178.324219 263.132812 178.109375 263.171875 177.972656 263.152344 Z M 171.414062 267.210938 C 170.738281 267.191406 170.410156 267.558594 170.410156 268.160156 C 170.410156 268.316406 170.679688 268.589844 170.699219 268.589844 C 171.125 268.355469 171.511719 268.085938 171.917969 267.8125 C 171.746094 267.597656 171.570312 267.386719 171.414062 267.210938 Z M 168.011719 251.070312 C 168.359375 250.953125 168.707031 250.835938 169.074219 250.722656 C 168.785156 250.527344 168.511719 250.214844 168.203125 250.175781 C 167.757812 250.117188 167.121094 249.925781 167.003906 250.664062 C 167.003906 250.761719 167.664062 250.933594 168.011719 251.070312 Z M 178.902344 244.835938 C 178.167969 244.71875 177.644531 244.601562 177.101562 244.542969 C 176.949219 244.542969 176.660156 244.835938 176.679688 244.894531 C 176.890625 245.574219 177.472656 245.613281 178.03125 245.515625 C 178.285156 245.476562 178.496094 245.167969 178.902344 244.835938 Z M 126.066406 268.9375 C 127.980469 270.667969 129.433594 271.96875 130.882812 273.269531 C 130.554688 270.6875 130.167969 268.199219 126.066406 268.9375 Z M 182.714844 252.972656 C 184.417969 252.023438 186.488281 255.1875 188.402344 252.390625 C 186.234375 252.253906 184.339844 251.167969 182.792969 253.070312 C 181.804688 253.03125 180.816406 252.953125 179.832031 252.972656 C 179.019531 253.011719 178.109375 253.363281 178.398438 254.292969 C 178.691406 255.265625 179.636719 254.972656 180.355469 254.585938 C 181.203125 254.160156 182.289062 254.023438 182.714844 252.972656 Z M 179 257.675781 C 178.1875 257.984375 177.664062 258.488281 178.265625 259.382812 C 178.398438 259.597656 179.078125 259.753906 179.210938 259.617188 C 179.984375 258.878906 178.941406 258.296875 178.941406 257.597656 C 179.484375 257.519531 180.0625 257.519531 180.546875 257.324219 C 180.855469 257.207031 180.683594 256.78125 180.199219 256.722656 C 179.578125 256.683594 179.210938 257.109375 179 257.675781 Z M 184.957031 62.039062 C 183.179688 60.386719 183.625 58.328125 184.417969 56.5625 C 185.304688 54.597656 185.289062 52.871094 184.707031 50.851562 C 183.160156 45.492188 184.746094 40.128906 185.113281 34.769531 C 185.269531 32.75 187.957031 31.625 189.757812 32.515625 C 191.652344 33.46875 194.765625 39.429688 193.953125 41.46875 C 191.207031 48.519531 193.316406 55.609375 193.585938 62.640625 C 193.703125 65.902344 195.40625 69.105469 192.660156 72.078125 C 191.847656 72.953125 192.929688 72.933594 193.316406 73.03125 C 194.746094 73.378906 194.070312 74.292969 194.148438 75.207031 C 194.398438 77.90625 194.226562 80.644531 194.1875 83.265625 C 194.070312 90.722656 196.0625 98.066406 194.476562 105.660156 C 193.761719 109.078125 194.109375 113.117188 194.671875 116.730469 C 195.851562 124.363281 194.148438 131.898438 194.730469 139.472656 C 195.984375 155.691406 194.050781 171.886719 194.207031 188.105469 C 194.226562 189.738281 194.730469 191.152344 194.902344 192.707031 C 196.585938 209.003906 195.929688 225.316406 195.039062 241.59375 C 194.824219 245.1875 193.101562 248.71875 192.117188 252.234375 C 189.679688 260.976562 184.417969 267.40625 177.800781 272.882812 C 172.035156 277.660156 165.535156 281.503906 157.871094 282.261719 C 153.675781 282.6875 149.242188 283.097656 145.199219 282.222656 C 140.074219 281.097656 135.101562 278.960938 130.34375 276.6875 C 127.128906 275.152344 124.847656 271.792969 123.414062 268.820312 C 118.039062 257.636719 121.90625 242.15625 130.378906 235.339844 C 132.199219 233.882812 134.152344 232.40625 135.140625 230.113281 C 135.21875 229.941406 135.332031 229.726562 135.488281 229.628906 C 141.890625 225.628906 147.464844 219.839844 155.707031 219.683594 C 158.277344 219.625 160.773438 219.296875 163.328125 218.925781 C 169.210938 218.09375 174.609375 220.09375 179.65625 222.949219 C 181.359375 223.917969 183.253906 225.433594 184.882812 224.519531 C 186.875 223.433594 185.714844 221.0625 185.539062 219.140625 C 185.25 215.839844 182.539062 212.226562 186.527344 209.3125 C 186.640625 209.234375 186.507812 208.496094 186.292969 208.285156 C 183.546875 205.566406 185.171875 202.320312 185.171875 199.292969 C 185.171875 196.652344 185.90625 193.910156 185.441406 191.386719 C 184.917969 188.6875 185.714844 186.125 185.675781 183.539062 C 185.597656 179.34375 184.589844 174.917969 185.730469 170.917969 C 186.875 166.859375 187.066406 162.992188 187.007812 158.875 C 186.96875 156.15625 185.035156 153.84375 186.332031 150.679688 C 187.261719 148.445312 186.351562 145.339844 185.480469 142.675781 C 184.359375 139.199219 186.5625 135.898438 186.234375 132.382812 C 186.136719 131.375 187.144531 130.054688 186.640625 128.964844 C 185.304688 126.070312 186.023438 123.121094 186.0625 120.167969 C 186.101562 118.1875 186.214844 116.242188 185.597656 114.28125 C 185.269531 113.195312 185.015625 111.699219 185.5 110.804688 C 187.242188 107.679688 186.332031 104.667969 185.695312 101.582031 C 184.609375 96.296875 184.105469 91.054688 186.101562 85.847656 C 186.933594 83.730469 185.402344 82.121094 184.6875 80.351562 C 183.855469 78.253906 187.125 77.34375 186.136719 75.246094 C 184.085938 70.972656 185.269531 66.40625 184.898438 61.980469 C 185.074219 61.921875 185.289062 61.902344 185.421875 61.804688 C 185.519531 61.746094 185.519531 61.550781 185.539062 61.417969 C 185.34375 61.609375 185.152344 61.824219 184.957031 62.039062 " fill-opacity="1" fill-rule="nonzero"/></svg>