<svg xmlns="http://www.w3.org/2000/svg" xmlns:xlink="http://www.w3.org/1999/xlink" width="420" zoomAndPan="magnify" viewBox="0 0 315 314.999992" height="420" preserveAspectRatio="xMidYMid meet" version="1.0"><rect x="-31.5" width="378" fill="#ffffff" y="-31.499999" height="377.99999" fill-opacity="1"/><rect x="-31.5" width="378" fill="#ffffff" y="-31.499999" height="377.99999" fill-opacity="1"/><path fill="#ff4a4a" d="M 237.710938 177.59375 C 238.84375 176.363281 239.582031 174.691406 239.53125 172.675781 C 239.382812 128.257812 238.253906 83.9375 239.285156 39.46875 C 239.382812 34.058594 233.578125 31.5 229.199219 33.664062 C 212.617188 41.78125 194.757812 47.632812 177.589844 54.421875 C 161.449219 60.867188 145.410156 67.359375 129.472656 74.246094 C 127.207031 72.082031 122.730469 72.867188 122.679688 76.953125 C 122.386719 102.578125 123.765625 128.207031 125.585938 153.738281 C 127.160156 175.824219 128.386719 198.550781 131.832031 220.585938 C 115.105469 221.519531 96.308594 225.160156 85.09375 237.605469 C 72.890625 251.082031 79.140625 270.464844 95.523438 276.859375 C 112.496094 283.5 134.585938 273.21875 145.019531 259.398438 C 149.988281 252.855469 152.742188 244.394531 149.398438 236.472656 C 148.707031 234.902344 147.871094 233.425781 146.839844 232.144531 C 147.773438 230.867188 148.316406 229.34375 148.214844 227.816406 C 145.902344 202.679688 141.132812 177.644531 138.277344 152.554688 C 137.144531 142.621094 136.113281 132.632812 135.179688 122.699219 C 141.820312 120.433594 148.117188 116.992188 154.515625 114.1875 C 162.535156 110.648438 170.601562 107.351562 178.769531 104.152344 C 186.394531 101.152344 194.070312 98.347656 201.84375 95.742188 C 209.273438 93.234375 217.097656 91.460938 224.328125 88.460938 C 223.738281 112.417969 223.492188 136.371094 224.179688 160.230469 C 210.257812 155.804688 194.613281 159.050781 184.527344 171.25 C 171.292969 187.234375 174.242188 211.632812 195.152344 219.0625 C 213.949219 225.75 237.90625 213.40625 241.203125 193.136719 C 242.140625 186.890625 240.664062 181.675781 237.710938 177.59375 Z M 98.128906 255.707031 C 98.128906 255.558594 98.179688 255.414062 98.179688 255.265625 C 98.621094 258.707031 100.097656 261.953125 102.609375 264.363281 C 99.507812 263.480469 97.539062 260.921875 98.128906 255.707031 Z M 138.472656 250.9375 C 139.359375 249.164062 140.148438 247.34375 140.640625 245.527344 C 140.34375 247.445312 139.558594 249.214844 138.472656 250.9375 Z M 220.246094 74.441406 C 211.980469 75.820312 203.664062 79.609375 195.84375 82.511719 C 187.96875 85.460938 180.148438 88.609375 172.375 91.953125 C 159.777344 97.367188 145.65625 103.070312 133.996094 110.992188 C 133.011719 100.757812 132.078125 90.480469 131.046875 80.246094 C 148.316406 74.933594 165.386719 69.179688 182.460938 63.375 C 196.726562 58.503906 210.996094 52.847656 225.460938 48.46875 C 225.117188 57.324219 224.820312 66.226562 224.574219 75.082031 C 223.296875 74.441406 221.769531 74.148438 220.246094 74.441406 Z M 224.527344 197.664062 C 223.394531 199.238281 221.867188 200.664062 220.097656 201.894531 C 223.246094 198.695312 225.609375 194.910156 226.542969 190.972656 C 226.839844 190.53125 227.082031 190.039062 227.328125 189.597656 C 227.429688 192.105469 226.542969 194.910156 224.527344 197.664062 Z M 224.527344 197.664062 " fill-opacity="1" fill-rule="nonzero"/></svg>