<svg xmlns="http://www.w3.org/2000/svg" xmlns:xlink="http://www.w3.org/1999/xlink" width="420" zoomAndPan="magnify" viewBox="0 0 315 314.999992" height="420" preserveAspectRatio="xMidYMid meet" version="1.0"><defs><clipPath id="31a3c6f0ad"><path d="M 65 31.5 L 211 31.5 L 211 283.5 L 65 283.5 Z M 65 31.5 " clip-rule="nonzero"/></clipPath><clipPath id="ea96d02f12"><path d="M 229 60 L 250.5625 60 L 250.5625 88 L 229 88 Z M 229 60 " clip-rule="nonzero"/></clipPath><clipPath id="59dd399c7f"><path d="M 229 126 L 250.5625 126 L 250.5625 152 L 229 152 Z M 229 126 " clip-rule="nonzero"/></clipPath></defs><rect x="-31.5" width="378" fill="#ffffff" y="-31.499999" height="377.99999" fill-opacity="1"/><rect x="-31.5" width="378" fill="#ffffff" y="-31.499999" height="377.99999" fill-opacity="1"/><g clip-path="url(#31a3c6f0ad)"><path fill="#f7b707" d="M 188.203125 122.015625 L 188.042969 122.226562 L 188.28125 122.265625 Z M 182.261719 209.121094 L 182.476562 209.28125 L 182.515625 209.039062 Z M 186.515625 164.921875 C 186.4375 164.699219 186.34375 164.457031 186.261719 164.21875 C 186.15625 164.3125 185.957031 164.417969 185.96875 164.484375 C 186.011719 164.738281 186.128906 164.976562 186.222656 165.214844 C 186.316406 165.121094 186.421875 165.015625 186.515625 164.921875 Z M 148.890625 261.6875 C 148.984375 261.792969 149.105469 261.992188 149.171875 261.980469 C 149.421875 261.9375 149.660156 261.820312 149.902344 261.726562 C 149.808594 261.621094 149.703125 261.40625 149.636719 261.421875 C 149.371094 261.472656 149.128906 261.59375 148.890625 261.6875 Z M 200.910156 131.460938 C 200.816406 131.554688 200.710938 131.644531 200.617188 131.753906 C 200.84375 131.84375 201.066406 131.964844 201.292969 132.019531 C 201.375 132.03125 201.492188 131.84375 201.585938 131.753906 C 201.359375 131.644531 201.132812 131.554688 200.910156 131.460938 Z M 202.492188 127.886719 C 202.582031 127.980469 202.691406 128.179688 202.757812 128.164062 C 202.996094 128.125 203.222656 128.007812 203.460938 127.925781 C 203.234375 127.820312 203.023438 127.6875 202.78125 127.632812 C 202.714844 127.605469 202.582031 127.792969 202.492188 127.886719 Z M 101.113281 126.957031 C 101.339844 127.0625 101.5625 127.195312 101.804688 127.261719 C 101.871094 127.273438 101.988281 127.101562 102.082031 127.007812 C 101.855469 126.902344 101.644531 126.769531 101.40625 126.71875 C 101.339844 126.691406 101.207031 126.875 101.113281 126.957031 Z M 176.652344 66.683594 C 176.5625 66.792969 176.386719 66.910156 176.402344 66.992188 C 176.441406 67.230469 176.5625 67.457031 176.640625 67.695312 C 176.734375 67.601562 176.933594 67.496094 176.921875 67.429688 C 176.878906 67.175781 176.761719 66.949219 176.652344 66.683594 Z M 185.984375 202.171875 C 185.757812 202.265625 185.53125 202.359375 185.304688 202.464844 C 185.398438 202.570312 185.503906 202.769531 185.558594 202.757812 C 185.796875 202.691406 186.023438 202.570312 186.25 202.464844 C 186.15625 202.371094 186.0625 202.265625 185.984375 202.171875 Z M 203.726562 117.695312 C 203.648438 117.589844 203.566406 117.496094 203.472656 117.390625 C 203.367188 117.605469 203.234375 117.816406 203.167969 118.042969 C 203.140625 118.121094 203.3125 118.242188 203.40625 118.347656 C 203.515625 118.121094 203.632812 117.910156 203.726562 117.695312 Z M 188.175781 204.390625 C 187.9375 204.296875 187.710938 204.152344 187.460938 204.097656 C 187.378906 204.074219 187.261719 204.257812 187.152344 204.351562 C 187.394531 204.457031 187.617188 204.605469 187.871094 204.65625 C 187.949219 204.683594 188.082031 204.496094 188.175781 204.390625 Z M 191.992188 206.289062 C 191.910156 206.199219 191.804688 206 191.738281 206 C 191.5 206.039062 191.261719 206.144531 191.019531 206.222656 C 191.113281 206.332031 191.207031 206.53125 191.285156 206.515625 C 191.527344 206.476562 191.75 206.371094 191.992188 206.289062 Z M 191.285156 209.851562 C 191.207031 209.625 191.113281 209.386719 191.019531 209.160156 C 190.914062 209.253906 190.714844 209.359375 190.726562 209.414062 C 190.78125 209.652344 190.902344 209.878906 190.980469 210.105469 C 191.085938 210.023438 191.195312 209.929688 191.285156 209.851562 Z M 188.175781 106.84375 C 188.402344 106.949219 188.628906 107.097656 188.867188 107.164062 C 188.933594 107.175781 189.054688 106.976562 189.160156 106.882812 C 188.933594 106.777344 188.707031 106.644531 188.46875 106.578125 C 188.402344 106.550781 188.269531 106.75 188.175781 106.84375 Z M 200.601562 175.710938 C 200.390625 175.617188 200.164062 175.472656 199.910156 175.40625 C 199.84375 175.390625 199.726562 175.589844 199.632812 175.683594 C 199.859375 175.789062 200.070312 175.9375 200.324219 176.003906 C 200.378906 176.015625 200.511719 175.816406 200.601562 175.710938 Z M 196.628906 85.03125 C 196.601562 84.910156 196.601562 84.738281 196.523438 84.699219 C 196.402344 84.632812 196.191406 84.566406 196.097656 84.632812 C 195.726562 84.84375 195.777344 85.070312 196.21875 85.175781 C 196.335938 85.203125 196.496094 85.085938 196.628906 85.03125 Z M 189.121094 154.695312 C 189.027344 154.589844 188.921875 154.390625 188.855469 154.402344 C 188.589844 154.441406 188.347656 154.546875 188.109375 154.640625 C 188.191406 154.746094 188.296875 154.960938 188.375 154.945312 C 188.628906 154.90625 188.867188 154.789062 189.121094 154.695312 Z M 183.40625 189.085938 C 183.324219 188.980469 183.21875 188.78125 183.152344 188.796875 C 182.914062 188.835938 182.675781 188.941406 182.421875 189.019531 C 182.515625 189.128906 182.621094 189.339844 182.6875 189.328125 C 182.941406 189.285156 183.167969 189.179688 183.40625 189.085938 Z M 201.851562 147.734375 C 201.757812 147.496094 201.652344 147.253906 201.558594 147.003906 C 201.453125 147.09375 201.226562 147.214844 201.242188 147.28125 C 201.292969 147.535156 201.425781 147.773438 201.519531 148.027344 C 201.625 147.933594 201.746094 147.828125 201.851562 147.734375 Z M 203.515625 145.117188 C 203.421875 145.011719 203.289062 144.796875 203.222656 144.8125 C 202.96875 144.878906 202.742188 145.011719 202.503906 145.117188 C 202.597656 145.222656 202.714844 145.421875 202.796875 145.410156 C 203.035156 145.355469 203.273438 145.222656 203.515625 145.117188 Z M 191.0625 189.113281 C 190.96875 189.007812 190.863281 188.796875 190.796875 188.808594 C 190.542969 188.847656 190.289062 188.953125 190.050781 189.035156 C 190.128906 189.152344 190.25 189.351562 190.316406 189.339844 C 190.570312 189.3125 190.808594 189.195312 191.0625 189.113281 Z M 198.675781 144.160156 C 198.914062 144.253906 199.128906 144.386719 199.367188 144.4375 C 199.445312 144.453125 199.566406 144.28125 199.660156 144.199219 C 199.578125 144.105469 199.460938 143.921875 199.394531 143.933594 C 199.140625 143.972656 198.914062 144.078125 198.675781 144.160156 Z M 193.957031 189.085938 C 193.863281 188.980469 193.746094 188.78125 193.679688 188.796875 C 193.425781 188.835938 193.199219 188.96875 192.960938 189.0625 C 193.039062 189.167969 193.160156 189.378906 193.226562 189.367188 C 193.480469 189.3125 193.71875 189.195312 193.957031 189.085938 Z M 185.265625 72.464844 C 185.492188 72.570312 185.71875 72.703125 185.96875 72.769531 C 186.035156 72.796875 186.171875 72.597656 186.261719 72.492188 C 186.035156 72.382812 185.796875 72.238281 185.558594 72.171875 C 185.492188 72.144531 185.359375 72.359375 185.265625 72.464844 Z M 193.796875 141.304688 C 193.730469 141.199219 193.679688 141.039062 193.585938 141.011719 C 193.453125 140.972656 193.242188 140.972656 193.148438 141.050781 C 192.855469 141.277344 192.972656 141.476562 193.414062 141.503906 C 193.53125 141.515625 193.664062 141.382812 193.796875 141.304688 Z M 208.257812 140.375 C 208.164062 140.265625 208.070312 140.054688 208.003906 140.066406 C 207.753906 140.109375 207.515625 140.226562 207.273438 140.308594 C 207.355469 140.414062 207.460938 140.625 207.527344 140.613281 C 207.78125 140.574219 208.003906 140.464844 208.257812 140.375 Z M 205.359375 136.496094 C 205.574219 136.601562 205.800781 136.734375 206.039062 136.800781 C 206.105469 136.8125 206.226562 136.628906 206.332031 136.535156 C 206.105469 136.429688 205.878906 136.28125 205.640625 136.214844 C 205.574219 136.203125 205.453125 136.402344 205.359375 136.496094 Z M 74.332031 82.746094 C 73.746094 82.71875 73.308594 82.613281 72.898438 82.691406 C 72.417969 82.773438 72.390625 83.105469 72.84375 83.304688 C 73.097656 83.410156 73.457031 83.421875 73.734375 83.355469 C 73.90625 83.316406 74.054688 83.050781 74.332031 82.746094 Z M 204.445312 138.804688 C 204.722656 138.699219 204.988281 138.59375 205.269531 138.472656 C 205.027344 138.328125 204.816406 138.074219 204.578125 138.050781 C 204.21875 138.007812 203.699219 137.929688 203.660156 138.515625 C 203.660156 138.59375 204.179688 138.714844 204.445312 138.804688 Z M 76.3125 105.355469 C 76.59375 105.25 76.859375 105.128906 77.136719 105.023438 C 76.910156 104.878906 76.683594 104.625 76.445312 104.597656 C 76.074219 104.558594 75.554688 104.480469 75.527344 105.078125 C 75.515625 105.15625 76.035156 105.261719 76.3125 105.355469 Z M 79.210938 81.070312 C 79.730469 81.046875 79.96875 80.6875 80.074219 80.261719 C 80.085938 80.183594 79.6875 79.875 79.515625 79.917969 C 79.304688 79.96875 79.023438 80.207031 78.957031 80.421875 C 78.90625 80.605469 79.128906 80.871094 79.210938 81.070312 Z M 73.679688 77.777344 C 73.640625 77.257812 73.402344 76.96875 72.871094 77.007812 C 72.75 77.007812 72.644531 77.152344 72.523438 77.21875 C 72.738281 77.539062 72.949219 77.84375 73.148438 78.164062 C 73.335938 78.03125 73.523438 77.898438 73.679688 77.777344 Z M 186.503906 67.257812 C 186.515625 66.644531 186.0625 66.433594 185.625 66.40625 C 185.226562 66.378906 184.8125 66.578125 184.402344 66.683594 C 184.894531 67.015625 185.371094 67.375 185.890625 67.628906 C 186.011719 67.679688 186.304688 67.390625 186.503906 67.257812 Z M 193.90625 183.1875 C 193.121094 182.777344 192.429688 182.804688 191.832031 183.453125 C 191.578125 183.734375 191.671875 184.210938 191.992188 184.226562 C 192.75 184.253906 193.425781 183.921875 193.90625 183.1875 Z M 177.835938 203.117188 C 177.730469 202.851562 177.71875 202.492188 177.53125 202.359375 C 177.09375 202.066406 176.667969 202.320312 176.480469 202.730469 C 176.402344 202.902344 176.601562 203.328125 176.785156 203.460938 C 177.210938 203.753906 177.585938 203.527344 177.835938 203.117188 Z M 179.722656 199.902344 C 179.511719 199.410156 179.125 199.25 178.714844 199.488281 C 178.527344 199.609375 178.355469 200.019531 178.421875 200.207031 C 178.566406 200.617188 178.953125 200.882812 179.390625 200.59375 C 179.589844 200.460938 179.632812 200.113281 179.722656 199.902344 Z M 196.84375 178.40625 C 195.777344 178.195312 194.929688 177.78125 193.375 179.109375 C 194.953125 178.832031 195.820312 179.363281 196.84375 178.40625 Z M 192.960938 199.476562 C 192.335938 199.171875 191.816406 198.878906 191.273438 198.679688 C 191.179688 198.652344 190.796875 199.039062 190.820312 199.183594 C 190.941406 199.96875 191.578125 199.996094 192.175781 199.914062 C 192.402344 199.886719 192.601562 199.6875 192.960938 199.476562 Z M 195.140625 163.410156 C 196.308594 163.449219 197.492188 164.191406 198.621094 163.167969 C 197.375 162.664062 196.21875 162.730469 195.140625 163.410156 Z M 174.050781 61.875 C 174.289062 59.257812 173.796875 58.5 172.628906 58.753906 C 172.917969 59.378906 173.304688 60.242188 174.050781 61.875 Z M 176.785156 227.042969 C 176.269531 227.507812 175.324219 227.757812 175.882812 228.753906 C 176.015625 228.992188 176.507812 229.285156 176.613281 229.21875 C 177.265625 228.792969 177.53125 228.089844 177.558594 227.332031 C 177.570312 227.253906 177.066406 227.148438 176.785156 227.042969 Z M 197.746094 185.980469 C 197.90625 186.535156 198.34375 186.667969 198.796875 186.589844 C 199.738281 186.445312 200.164062 185.832031 199.964844 184.902344 C 199.871094 184.4375 199.578125 183.921875 199.007812 184.121094 C 198.171875 184.398438 198.039062 185.261719 197.746094 185.980469 Z M 175.230469 206.023438 C 174.15625 206.703125 175.65625 207.660156 174.925781 208.507812 C 174.367188 209.160156 175.058594 209.558594 175.75 209.597656 C 176.628906 209.636719 176.546875 209.105469 176.601562 208.390625 C 176.707031 207.195312 176.761719 206.222656 175.230469 206.023438 Z M 182.542969 59.683594 C 182.769531 61.160156 182.859375 62.5 183.191406 63.777344 C 183.390625 64.53125 184.136719 65.355469 184.921875 64.996094 C 185.996094 64.492188 185.398438 63.710938 184.65625 63.324219 C 183.21875 62.554688 184.589844 60.402344 182.542969 59.683594 Z M 190.914062 74.269531 C 190.660156 75.015625 190.488281 75.613281 190.261719 76.183594 C 190.023438 76.742188 188.097656 77.417969 190.316406 77.765625 C 191.925781 78.03125 191.964844 81.417969 193.71875 79.996094 C 195.140625 78.855469 192.058594 77.671875 192.351562 75.957031 C 192.441406 75.347656 191.964844 74.773438 190.914062 74.269531 Z M 164.203125 46.015625 C 164.066406 45.777344 163.894531 45.335938 163.800781 45.351562 C 162.0625 45.628906 162.59375 43.53125 161.382812 43.105469 C 160.226562 42.695312 159.230469 41.804688 158.179688 41.125 C 157.730469 40.820312 157.289062 40.847656 156.90625 41.191406 C 156.53125 41.511719 156.253906 41.976562 156.679688 42.402344 C 158.472656 44.179688 160.546875 45.628906 162.726562 46.878906 C 163.269531 47.195312 163.894531 46.640625 164.203125 46.015625 Z M 204.910156 149.378906 C 204.246094 150.003906 203.59375 150.640625 202.890625 151.226562 C 202.34375 151.679688 201.175781 150.800781 200.855469 152.128906 C 203.527344 152.6875 205.917969 151.027344 208.894531 152.105469 C 208.179688 150.03125 207.140625 149.007812 206 148.277344 C 204.75 147.480469 205.070312 148.863281 204.855469 149.433594 Z M 201.015625 166.648438 C 201.253906 165.535156 202.730469 165.894531 203.101562 164.789062 C 201.335938 165.363281 199.101562 163.835938 197.652344 166.132812 C 198.890625 166.824219 200.019531 166.476562 201.09375 166.582031 C 201.175781 167.820312 200.417969 168.617188 199.726562 169.492188 C 199.339844 169.996094 199.15625 170.6875 199.886719 171.113281 C 200.589844 171.511719 201.785156 171.683594 202.066406 171.167969 C 202.597656 170.15625 202.769531 168.894531 202.796875 167.738281 C 202.808594 166.714844 201.800781 166.714844 201.015625 166.648438 Z M 201.984375 156.140625 C 201.984375 155.675781 202.011719 155.226562 202 154.773438 C 201.972656 154.347656 201.957031 153.855469 201.425781 153.777344 C 201.214844 153.75 200.894531 154.015625 200.710938 154.230469 C 200.3125 154.667969 200.578125 155.09375 200.910156 155.386719 C 201.242188 155.675781 201.667969 155.863281 202.050781 156.074219 C 203.222656 157.257812 205.09375 157.3125 205.960938 159.15625 C 206.996094 157.296875 207.207031 156.15625 205.625 155.066406 C 203.847656 153.832031 203.222656 155.875 201.984375 156.140625 Z M 195.285156 190.484375 C 197.546875 190.242188 197.546875 190.242188 197.320312 187.785156 C 195.84375 188.117188 195.300781 189.113281 195.351562 190.523438 C 195.0625 190.855469 194.597656 191.148438 194.503906 191.53125 C 194.410156 191.917969 194.636719 192.410156 194.753906 192.847656 C 194.769531 192.875 195.046875 192.898438 195.167969 192.832031 C 195.804688 192.5 196.042969 192.023438 195.671875 191.332031 C 195.527344 191.054688 195.40625 190.761719 195.285156 190.484375 Z M 188.667969 147.535156 C 188.28125 147.773438 187.84375 147.945312 187.511719 148.238281 C 187.167969 148.542969 187.007812 149.007812 187.632812 149.207031 C 187.816406 149.261719 188.257812 149.007812 188.335938 148.796875 C 188.523438 148.398438 188.523438 147.933594 188.601562 147.480469 C 189.054688 147.335938 189.386719 147.054688 189.359375 146.5625 C 189.332031 146.179688 189.015625 146.03125 188.90625 146.285156 C 188.734375 146.671875 188.734375 147.121094 188.667969 147.535156 Z M 188.667969 74.894531 C 188.214844 74.972656 187.738281 74.972656 187.328125 75.148438 C 187.085938 75.253906 187.234375 75.613281 187.632812 75.652344 C 188.164062 75.691406 188.457031 75.332031 188.601562 74.855469 C 189.066406 74.707031 189.4375 74.441406 189.425781 73.925781 C 189.414062 73.539062 189.054688 73.378906 188.933594 73.605469 C 188.75 73.992188 188.75 74.46875 188.667969 74.894531 Z M 190.515625 186.722656 C 190.476562 186.578125 190.460938 186.402344 190.382812 186.285156 C 190.328125 186.21875 190.171875 186.21875 190.0625 186.191406 C 190.238281 186.351562 190.410156 186.511719 190.570312 186.667969 C 191.195312 187.746094 191.804688 187.867188 192.429688 186.667969 C 192.5625 186.617188 192.722656 186.589844 192.828125 186.511719 C 192.894531 186.457031 192.894531 186.3125 192.933594 186.21875 C 192.773438 186.378906 192.628906 186.550781 192.484375 186.722656 C 191.832031 186.722656 191.167969 186.722656 190.515625 186.722656 Z M 197.214844 172.390625 C 197.160156 172.242188 197.148438 172.082031 197.054688 171.964844 C 197 171.898438 196.855469 171.882812 196.75 171.859375 C 196.921875 172.015625 197.09375 172.175781 197.265625 172.324219 C 197.332031 172.46875 197.359375 172.613281 197.453125 172.734375 C 197.507812 172.800781 197.640625 172.800781 197.746094 172.828125 C 197.574219 172.679688 197.386719 172.535156 197.214844 172.390625 Z M 181.957031 182.882812 C 178.914062 182.285156 178.820312 182.234375 180.335938 179.828125 C 181 178.777344 180.878906 177.742188 181 176.679688 C 181.105469 175.761719 180.855469 174.742188 181.957031 174.234375 C 182.460938 175.140625 182.792969 176.335938 184.269531 175.710938 C 184.390625 175.671875 184.535156 175.457031 184.523438 175.363281 C 184.164062 173.785156 182.847656 174.476562 181.902344 174.300781 C 181.664062 173.558594 180.988281 172.574219 181.253906 172.109375 C 183.074219 168.855469 182.527344 165.214844 182.59375 161.839844 C 182.636719 159.980469 183.5 158.945312 184.148438 157.710938 C 184.65625 156.753906 185.386719 156.714844 186.382812 158.160156 C 187.40625 159.664062 187.550781 157.417969 188.125 156.804688 C 187.367188 155.53125 186.128906 156.328125 185.160156 156.089844 C 184.335938 155.902344 183.433594 155.625 183.433594 154.761719 C 183.433594 154.109375 184.457031 154.28125 184.960938 153.992188 C 185.636719 153.605469 185.691406 152.953125 185.066406 152.503906 C 183.578125 151.398438 184.960938 151.519531 185.546875 151.253906 C 185.757812 151.148438 185.902344 150.921875 186.089844 150.75 C 183.5 149.886719 185.625 147.5625 185.082031 146.84375 C 183.777344 145.15625 185.253906 143.734375 184.761719 142.367188 C 183.671875 139.363281 184.679688 136.230469 184.03125 133.199219 C 183.925781 132.734375 183.992188 132.257812 183.964844 131.777344 C 183.882812 130.621094 185.214844 130.398438 185.464844 129.507812 C 185.769531 128.445312 183.484375 129.320312 184.125 127.859375 C 185.132812 125.46875 185.746094 123.304688 184.65625 120.5 C 183.84375 118.375 184.679688 115.613281 184.773438 113.128906 C 184.773438 112.96875 184.8125 112.769531 184.746094 112.648438 C 181.71875 107.5625 183.699219 101.425781 181.265625 96.164062 C 180.414062 94.328125 181.011719 92.136719 180.535156 90.078125 C 178.914062 83.132812 175.671875 76.714844 173.863281 69.898438 C 172.082031 63.164062 167.84375 58.0625 164.054688 52.695312 C 161.835938 49.546875 158.394531 47.304688 155.628906 44.527344 C 152.292969 41.152344 148.039062 39.453125 143.800781 37.710938 C 141.035156 36.582031 138.230469 36.105469 135.136719 36.332031 C 132.210938 36.53125 129.261719 36.265625 126.285156 36.53125 C 119.597656 37.140625 113.992188 39.664062 109.300781 44.539062 C 106.46875 47.476562 103.277344 50.066406 100.089844 52.617188 C 99.078125 53.425781 98.148438 54.117188 97.484375 55.273438 C 96.6875 56.695312 95.542969 57.757812 93.671875 57.679688 C 92.632812 57.636719 92.179688 58.167969 93.019531 59.074219 C 93.828125 59.964844 93.417969 60.414062 92.527344 60.746094 C 91.292969 61.210938 90.640625 61.890625 90.492188 63.402344 C 90.359375 64.746094 89.535156 66.101562 88.433594 67.070312 C 87.941406 67.496094 87.515625 67.90625 87.34375 68.570312 C 86.414062 72.027344 85.695312 75.441406 82.984375 78.269531 C 81.839844 79.476562 81.734375 82.214844 82.054688 84.101562 C 82.28125 85.46875 81.402344 86.613281 81.855469 87.726562 C 82.359375 89.003906 81.828125 90.027344 81.191406 90.796875 C 79.636719 92.65625 82.492188 92.378906 82.265625 93.265625 C 82 94.355469 81.734375 95.273438 82.214844 96.429688 C 82.652344 97.53125 81.003906 98.714844 81.363281 99.472656 C 82.480469 101.808594 82.242188 104.625 83.582031 106.632812 C 84.339844 107.746094 84.539062 108.277344 84.046875 109.300781 C 85.363281 109.59375 84.0625 112.914062 86.746094 111.640625 C 87.554688 112.808594 88.488281 113.910156 89.179688 115.132812 C 91 118.375 94.574219 118.894531 97.445312 120.445312 C 98.375 120.953125 99.863281 118.71875 99 117.828125 C 96.964844 115.769531 98.253906 113.816406 98.945312 112.078125 C 100.40625 108.371094 102.496094 105.023438 106.546875 103.429688 C 109.085938 102.421875 111.332031 100.917969 114.203125 100.46875 C 117.035156 100.027344 119.082031 100.359375 120.78125 102.605469 C 120.648438 102.660156 120.488281 102.671875 120.382812 102.753906 C 120.316406 102.804688 120.316406 102.9375 120.277344 103.042969 C 120.421875 102.886719 120.570312 102.710938 120.730469 102.554688 C 124.796875 103.601562 127.480469 106.578125 129.832031 109.714844 C 130.722656 110.910156 131.46875 112.648438 130.671875 114.617188 C 129.78125 116.78125 130.457031 119.238281 129.582031 121.601562 C 127.734375 126.597656 124.835938 130.078125 119.492188 131.527344 C 117.75 132.003906 115.640625 131.792969 114.203125 133.398438 C 113.566406 134.117188 112.726562 133.359375 111.996094 133.238281 C 105.445312 132.164062 98.945312 130.875 92.554688 129.070312 C 85.375 127.050781 79.820312 122.691406 76.261719 116.316406 C 74.769531 113.644531 72.523438 111.667969 71.195312 108.917969 C 68.816406 104.027344 67.621094 98.820312 66.253906 93.625 C 64.164062 85.695312 65.855469 78.375 69.28125 71.160156 C 71.035156 67.507812 72.40625 63.695312 74.359375 60.097656 C 75.449219 58.089844 77.058594 56.640625 78.386719 55.046875 C 80.046875 53.054688 82.480469 51.765625 83.265625 48.9375 C 83.542969 47.953125 84.84375 47.570312 85.894531 47.089844 C 89.152344 45.574219 92.859375 44.804688 95.183594 41.671875 C 95.449219 41.296875 95.917969 41.074219 96.289062 40.78125 C 98.015625 39.453125 100.792969 40.222656 101.976562 38.894531 C 103.558594 37.085938 105.351562 37.0625 107.253906 36.421875 C 111.105469 35.109375 115.1875 34.417969 118.839844 32.476562 C 119.386719 32.183594 120.023438 31.933594 120.621094 31.933594 C 123.148438 31.960938 125.671875 31.972656 128.210938 32.105469 C 130.496094 32.226562 132.890625 31.535156 135.203125 32.039062 C 139.042969 32.890625 143.070312 33.421875 146.589844 35.015625 C 151.109375 37.046875 156 37.644531 160.558594 39.4375 C 164.160156 40.847656 166.886719 43.382812 170.074219 45.269531 C 173.359375 47.210938 176.429688 49.390625 178.820312 52.390625 C 179.125 52.75 179.3125 53.335938 179.683594 53.480469 C 184.5625 55.378906 186.289062 60.03125 188.773438 63.949219 C 191.726562 68.597656 194.488281 73.394531 196.988281 78.308594 C 198.914062 82.109375 200.445312 86.121094 201.851562 90.144531 C 202.371094 91.578125 203.195312 92.578125 204.046875 93.71875 C 204.671875 94.542969 207.316406 95.632812 204.152344 96.734375 C 204.097656 96.746094 204.191406 97.320312 204.296875 97.585938 C 207.140625 105.117188 208.644531 112.941406 209.148438 120.925781 C 209.335938 123.660156 210.691406 126.1875 210.105469 129.082031 C 209.695312 131.113281 209.453125 133.1875 210.105469 135.484375 C 210.636719 137.359375 209.496094 139.722656 209.121094 141.863281 C 209.042969 142.300781 208.871094 142.9375 209.082031 143.191406 C 211.898438 146.472656 209.070312 149.820312 209.214844 153.113281 C 209.242188 153.871094 208.84375 154.628906 208.695312 155.398438 C 207.632812 160.820312 207.648438 160.820312 201.972656 159.953125 C 201.957031 159.382812 202.863281 158.972656 202.265625 158.335938 C 202.171875 158.226562 201.613281 158.320312 201.492188 158.480469 C 201.015625 159.171875 201.386719 159.609375 202.050781 159.914062 C 201.945312 161.097656 201.824219 162.292969 201.734375 163.5 C 203.128906 163.660156 203.621094 162.320312 204.671875 162.015625 C 205.546875 161.75 205.492188 161.734375 205.519531 163.195312 C 205.535156 163.726562 206.171875 163.648438 206.570312 163.753906 C 207.433594 163.992188 207.515625 164.964844 206.890625 164.9375 C 204.285156 164.832031 205.441406 167.355469 204.523438 167.992188 C 202.515625 169.414062 206.730469 171.578125 203.753906 172.535156 C 203.792969 174.078125 203.847656 175.617188 203.898438 177.160156 L 203.953125 177.105469 C 203.179688 177.359375 201.679688 177.09375 202.609375 178.660156 C 202.980469 179.296875 203.886719 179.601562 204.351562 180.199219 C 204.855469 180.839844 205.042969 181.753906 204.335938 182.351562 C 203.472656 183.097656 202.597656 182.898438 201.984375 181.875 C 202.609375 181.753906 204.070312 181.980469 203.179688 180.890625 C 202.183594 179.683594 200.617188 178.660156 198.597656 179.335938 C 199.566406 180.691406 201.402344 180.519531 202.050781 181.941406 C 198.609375 181.542969 198.609375 181.542969 196.457031 182.949219 C 198.902344 182.65625 201.203125 183.015625 203.328125 184.210938 C 201.851562 185.128906 202.210938 187.386719 200.335938 188.105469 C 199.378906 188.464844 200.113281 189.085938 200.3125 189.816406 C 201.027344 192.34375 199.644531 194.839844 197.214844 196.273438 C 197.160156 196.140625 197.148438 195.980469 197.054688 195.875 C 197.015625 195.808594 196.867188 195.808594 196.761719 195.78125 C 196.933594 195.929688 197.09375 196.074219 197.265625 196.222656 C 197.242188 196.554688 197.226562 196.886719 197.199219 197.230469 L 197.265625 197.164062 C 196.363281 197.5625 196.164062 198.1875 196.65625 199.039062 C 197.597656 200.644531 196.578125 200.9375 195.300781 201.058594 C 195.246094 200.925781 195.234375 200.765625 195.152344 200.660156 C 195.101562 200.59375 194.953125 200.59375 194.847656 200.566406 C 195.019531 200.710938 195.195312 200.859375 195.351562 201.003906 C 195.21875 201.960938 197.90625 201.988281 196.175781 203.433594 C 194.464844 204.871094 194.183594 206.996094 193.453125 208.882812 C 192.828125 210.515625 192.417969 212.148438 190.050781 211.964844 C 189.238281 211.898438 188.683594 212.839844 189.464844 213.675781 C 190.542969 214.820312 190.449219 215.695312 189.464844 216.945312 C 187.9375 218.882812 186.714844 220.957031 185.851562 223.386719 C 184.972656 225.832031 183.074219 227.929688 181.53125 230.125 C 181.039062 230.828125 180.003906 230.46875 179.3125 230.789062 C 178.289062 231.277344 177.304688 231.941406 179.511719 232.074219 C 179.617188 232.074219 179.832031 232.792969 179.777344 232.820312 C 177.105469 234.480469 177.292969 238.902344 173.410156 239.382812 C 173.144531 239.410156 172.828125 239.675781 172.667969 239.914062 C 169.292969 245.160156 169.292969 245.175781 166.289062 246.34375 C 166.898438 247.5 168.402344 246.34375 169.09375 247.605469 C 166.726562 250.753906 162.886719 252.109375 159.921875 254.566406 L 159.976562 254.511719 C 159.628906 254.527344 159.296875 254.554688 158.964844 254.578125 C 159.21875 253.542969 159.484375 252.507812 159.761719 251.40625 C 158.511719 251.164062 157.570312 251.65625 156.613281 252.175781 C 156.90625 253.476562 157.355469 254.621094 159.019531 254.511719 C 157.597656 255.441406 157.238281 257.195312 156.09375 258.339844 L 156.160156 258.390625 C 155.882812 257.6875 155.535156 257.011719 155.363281 256.28125 C 155.230469 255.734375 156.175781 254.445312 154.804688 254.910156 C 154.074219 255.164062 152.453125 254.140625 152.347656 256.066406 C 152.292969 257.210938 152.691406 258.589844 151.308594 259.347656 C 151.230469 258.921875 151.230469 258.472656 151.058594 258.085938 C 150.9375 257.847656 150.59375 257.992188 150.578125 258.367188 C 150.566406 258.871094 150.925781 259.148438 151.375 259.308594 C 151.734375 260.4375 152.984375 260.121094 153.980469 260.863281 C 151.335938 262.828125 149.421875 265.578125 145.914062 266.019531 C 144.625 268.394531 141.859375 269.390625 140.386719 271.359375 C 137.460938 275.25 133.648438 276.300781 129.234375 276.527344 C 128.835938 276.539062 128.449219 276.777344 127.667969 277.042969 C 128.957031 277.375 129.847656 277.601562 131.003906 277.894531 C 128.914062 278.824219 126.988281 279.421875 125.394531 280.777344 C 124.011719 281.957031 122.03125 281.292969 120.609375 281.734375 C 117.460938 282.691406 114.296875 282.863281 111.132812 283.367188 C 109.351562 283.660156 107.71875 283.421875 106.042969 283.167969 C 103.664062 282.808594 101.445312 281.824219 98.960938 281.757812 C 98.1875 281.746094 95.835938 281.917969 96.527344 279.410156 C 96.78125 278.492188 95.371094 278.730469 94.707031 278.453125 C 92.582031 277.574219 91.980469 274.996094 93.511719 273.65625 C 94.320312 272.953125 95.078125 272.847656 96.101562 273.269531 C 98.878906 274.425781 101.765625 275.34375 104.5 276.550781 C 106.015625 277.214844 107.492188 277.546875 109.113281 277.523438 C 112.128906 277.480469 115.160156 277.589844 118.175781 277.429688 C 122.457031 277.203125 126.230469 275.261719 129.515625 272.847656 C 135.203125 268.648438 140.609375 263.957031 145.222656 258.589844 C 147.363281 256.09375 150.191406 253.636719 150.539062 249.851562 C 150.617188 249.027344 151.214844 248.480469 151.949219 248.058594 C 155.75 245.8125 157.796875 242.449219 159.269531 238.28125 C 160.53125 234.71875 160.757812 230.574219 163.800781 227.746094 C 163.894531 228.183594 163.988281 228.992188 164.082031 228.992188 C 165 228.992188 164.574219 228.222656 164.707031 227.757812 C 165.15625 227.757812 165.609375 227.8125 166.0625 227.773438 C 166.433594 227.730469 166.964844 227.746094 166.886719 227.160156 C 166.871094 227.027344 166.394531 226.855469 166.128906 226.855469 C 165.476562 226.855469 165 227.1875 164.757812 227.8125 C 164.414062 227.8125 164.082031 227.8125 163.75 227.8125 C 164.625 224.210938 167.335938 221.675781 169.09375 218.578125 C 169.929688 217.089844 172.601562 216.851562 171.855469 214.234375 C 171.445312 212.707031 173.265625 211.390625 172.480469 209.597656 C 172.160156 208.867188 172.496094 207.6875 172.867188 206.847656 C 173.941406 204.445312 175.589844 202.210938 174.554688 199.34375 C 174.488281 199.128906 174.699219 198.71875 174.898438 198.519531 C 176.375 197.136719 177.53125 195.34375 177.171875 193.457031 C 176.773438 191.332031 178.859375 189.992188 178.289062 187.917969 C 178.078125 187.148438 178.847656 186.136719 179.074219 185.222656 C 179.390625 183.933594 180.109375 184.027344 181.210938 184.226562 C 181.96875 184.371094 181.917969 183.441406 181.917969 182.832031 C 183.140625 183.46875 183.125 185.394531 184.746094 185.59375 C 185.160156 185.648438 185.824219 185.621094 185.984375 185.382812 C 186.25 184.941406 185.613281 184.785156 185.371094 184.503906 C 184.523438 183.496094 184.601562 182.589844 185.785156 181.875 C 185.835938 182.019531 185.851562 182.191406 185.929688 182.300781 C 185.984375 182.378906 186.144531 182.367188 186.25 182.390625 C 186.078125 182.246094 185.902344 182.085938 185.730469 181.941406 C 183.699219 179.65625 183.699219 179.65625 187.433594 178.488281 C 185.824219 178.167969 184.535156 177.914062 182.875 177.597656 C 183.378906 179.707031 181.878906 181.105469 181.957031 182.882812 " fill-opacity="1" fill-rule="nonzero"/></g><g clip-path="url(#ea96d02f12)"><path fill="#f7b707" d="M 236.832031 65.078125 C 236.804688 64.441406 236.3125 64.425781 235.890625 64.453125 C 235.597656 64.464844 235.089844 64.613281 235.066406 64.757812 C 234.972656 65.277344 235.316406 65.703125 235.808594 65.796875 C 236.300781 65.886719 236.632812 65.515625 236.832031 65.078125 Z M 245.019531 67.191406 C 245.816406 67.242188 246.785156 67.296875 247.132812 68.027344 C 248.117188 70.097656 248.714844 72.292969 250.054688 74.285156 C 250.679688 75.199219 250.164062 77.765625 249.019531 79.105469 C 246.519531 82.070312 244.273438 85.351562 240.367188 86.757812 C 239.425781 87.089844 238.535156 87.410156 237.65625 86.835938 C 235.039062 85.136719 232.179688 83.6875 230.519531 80.871094 C 229.65625 79.410156 228.765625 78.136719 229.402344 76.078125 C 230.027344 74.070312 229.417969 71.800781 229.855469 69.582031 C 230.507812 66.195312 234.1875 61.039062 237.496094 60.1875 C 238.46875 59.9375 239.625 60.414062 240.6875 60.574219 C 243.304688 60.960938 243.4375 63.84375 245.230469 65.105469 C 246.054688 65.6875 245.246094 66.527344 245.085938 67.242188 C 244.953125 67.296875 244.804688 67.324219 244.699219 67.402344 C 244.632812 67.457031 244.632812 67.589844 244.59375 67.667969 C 244.738281 67.507812 244.871094 67.347656 245.019531 67.191406 " fill-opacity="1" fill-rule="nonzero"/></g><g clip-path="url(#59dd399c7f)"><path fill="#f7b707" d="M 239.664062 149.0625 C 239.636719 148.957031 239.636719 148.78125 239.570312 148.757812 C 239.4375 148.691406 239.25 148.636719 239.132812 148.691406 C 238.757812 148.875 238.8125 149.089844 239.265625 149.195312 C 239.382812 149.222656 239.53125 149.101562 239.664062 149.0625 Z M 239.824219 141.277344 C 239.714844 141.171875 239.597656 140.984375 239.53125 141 C 239.289062 141.050781 239.066406 141.183594 238.824219 141.277344 C 239.066406 141.371094 239.289062 141.488281 239.53125 141.542969 C 239.597656 141.570312 239.714844 141.382812 239.824219 141.277344 Z M 237.84375 143.191406 C 237.734375 142.550781 237.296875 142.179688 236.738281 142.019531 C 236.527344 141.953125 235.996094 142.167969 235.996094 142.234375 C 236.007812 142.898438 236.5 143.242188 237.058594 143.429688 C 237.269531 143.496094 237.5625 143.28125 237.84375 143.191406 Z M 229.734375 139.417969 C 229.734375 138.460938 229.667969 137.503906 229.75 136.546875 C 230.1875 131.84375 233.5625 127.859375 238.066406 126.71875 C 239.542969 126.34375 240.859375 127.472656 242.015625 127.527344 C 245.140625 127.660156 246.746094 129.824219 248.847656 131.367188 C 248.050781 133.53125 251.011719 134.460938 250.519531 136.613281 C 250.097656 138.433594 251.53125 140.796875 248.792969 141.886719 C 248.167969 142.140625 248.089844 142.871094 247.984375 143.507812 C 247.226562 148.25 243.425781 150.175781 239.625 151.1875 C 234.175781 152.648438 231.332031 148.769531 229.800781 142.75 C 229.535156 141.703125 229.761719 140.53125 229.761719 139.417969 C 229.761719 139.417969 229.75 139.417969 229.734375 139.417969 " fill-opacity="1" fill-rule="nonzero"/></g><path fill="#f7b707" d="M 156.09375 258.339844 C 156.066406 259.296875 156.066406 260.277344 154.644531 259.480469 C 154.3125 259.28125 153.796875 259.191406 153.996094 258.65625 C 154.0625 258.5 154.511719 258.433594 154.804688 258.40625 C 155.242188 258.367188 155.707031 258.390625 156.160156 258.390625 L 156.09375 258.339844 " fill-opacity="1" fill-rule="nonzero"/><path fill="#f7b707" d="M 206.34375 167.0625 C 206.4375 167.300781 206.558594 167.554688 206.597656 167.804688 C 206.609375 167.871094 206.398438 167.980469 206.277344 168.070312 C 206.199219 167.820312 206.078125 167.582031 206.039062 167.316406 C 206.027344 167.25 206.238281 167.140625 206.34375 167.0625 " fill-opacity="1" fill-rule="nonzero"/><path fill="#f7b707" d="M 197.199219 197.230469 C 197.375 197.378906 197.53125 197.523438 197.707031 197.667969 C 197.613281 197.628906 197.480469 197.628906 197.425781 197.5625 C 197.347656 197.445312 197.308594 197.296875 197.265625 197.164062 L 197.199219 197.230469 " fill-opacity="1" fill-rule="nonzero"/><path fill="#f7b707" d="M 159.921875 254.566406 C 160.09375 254.726562 160.265625 254.871094 160.441406 255.03125 C 160.332031 255.003906 160.1875 255.003906 160.121094 254.9375 C 160.042969 254.820312 160.015625 254.660156 159.976562 254.511719 L 159.921875 254.566406 " fill-opacity="1" fill-rule="nonzero"/><path fill="#f7b707" d="M 203.898438 177.160156 C 204.070312 177.304688 204.230469 177.449219 204.402344 177.597656 C 204.296875 177.570312 204.164062 177.570312 204.113281 177.503906 C 204.03125 177.398438 204.003906 177.238281 203.953125 177.105469 L 203.898438 177.160156 " fill-opacity="1" fill-rule="nonzero"/><path fill="#f7b707" d="M 204.855469 149.433594 C 205.027344 149.59375 205.203125 149.753906 205.375 149.910156 C 205.269531 149.871094 205.121094 149.871094 205.070312 149.804688 C 204.976562 149.6875 204.960938 149.527344 204.910156 149.378906 L 204.855469 149.433594 " fill-opacity="1" fill-rule="nonzero"/></svg>