<svg xmlns="http://www.w3.org/2000/svg" xmlns:xlink="http://www.w3.org/1999/xlink" width="420" zoomAndPan="magnify" viewBox="0 0 315 314.999992" height="420" preserveAspectRatio="xMidYMid meet" version="1.0"><defs><clipPath id="40ff9bdb4d"><path d="M 48.441406 53 L 261 53 L 261 56 L 48.441406 56 Z M 48.441406 53 " clip-rule="nonzero"/></clipPath><clipPath id="2242be4bd4"><path d="M 101 31.5 L 106 31.5 L 106 271 L 101 271 Z M 101 31.5 " clip-rule="nonzero"/></clipPath></defs><g clip-path="url(#40ff9bdb4d)"><path fill="#000000" d="M 48.460938 55.875 L 51.789062 55.863281 C 110.742188 55.75 170.769531 55.726562 231.871094 55.796875 L 240.125 55.75 L 246.925781 55.609375 L 252.304688 55.390625 L 256.3125 55.117188 C 260.683594 54.683594 261.71875 54.25 259.421875 53.8125 L 257.179688 53.535156 L 253.8125 53.308594 L 249.363281 53.160156 L 243.871094 53.109375 C 211.195312 53.160156 188.339844 53.1875 175.304688 53.1875 C 134.445312 53.183594 103.589844 53.160156 82.746094 53.117188 L 75.066406 53.160156 L 69.015625 53.304688 L 64.371094 53.527344 C 61.742188 53.703125 59.75 53.90625 58.390625 54.132812 L 56.605469 54.476562 L 52.191406 55.667969 L 50.644531 55.820312 L 48.460938 55.875 " fill-opacity="1" fill-rule="nonzero"/></g><path fill="#000000" d="M 54.828125 82.335938 L 58.042969 82.316406 C 115.03125 82.074219 173.054688 81.917969 232.121094 81.851562 L 240.101562 81.789062 L 246.671875 81.632812 L 251.875 81.402344 L 255.746094 81.117188 C 259.96875 80.675781 260.972656 80.238281 258.75 79.808594 L 256.582031 79.53125 L 253.328125 79.316406 L 249.023438 79.175781 L 243.714844 79.136719 C 212.128906 79.261719 190.035156 79.339844 177.4375 79.367188 C 137.9375 79.453125 108.113281 79.496094 87.960938 79.503906 L 80.535156 79.566406 L 74.6875 79.722656 L 70.199219 79.953125 C 67.660156 80.136719 65.734375 80.34375 64.421875 80.574219 L 62.695312 80.921875 L 58.433594 82.121094 L 56.933594 82.277344 L 54.828125 82.335938 " fill-opacity="1" fill-rule="nonzero"/><path fill="#000000" d="M 56.273438 107.207031 L 59.457031 107.160156 C 115.921875 106.394531 173.414062 105.703125 231.9375 105.09375 L 239.84375 104.957031 L 246.351562 104.742188 C 250.226562 104.570312 253.222656 104.371094 255.335938 104.140625 C 259.519531 103.660156 260.507812 103.214844 258.300781 102.804688 L 256.152344 102.550781 L 252.921875 102.363281 L 248.65625 102.265625 L 243.398438 102.273438 C 212.101562 102.6875 190.214844 102.96875 177.730469 103.113281 C 138.59375 103.558594 109.042969 103.878906 89.074219 104.070312 L 81.71875 104.199219 L 75.929688 104.410156 L 71.484375 104.683594 C 68.96875 104.886719 67.0625 105.113281 65.761719 105.355469 L 64.054688 105.722656 L 59.84375 106.960938 L 58.359375 107.128906 L 56.273438 107.207031 " fill-opacity="1" fill-rule="nonzero"/><path fill="#000000" d="M 53.847656 135.191406 L 57.039062 135.136719 C 113.566406 134.238281 171.125 133.414062 229.714844 132.667969 L 237.632812 132.515625 L 244.148438 132.285156 L 249.304688 131.996094 L 253.144531 131.664062 C 257.328125 131.175781 258.316406 130.726562 256.109375 130.320312 L 253.953125 130.070312 L 250.722656 129.890625 L 246.453125 129.804688 L 241.183594 129.824219 C 209.855469 130.308594 187.941406 130.640625 175.441406 130.816406 C 136.257812 131.355469 106.675781 131.742188 86.683594 131.980469 L 79.320312 132.125 L 73.523438 132.347656 L 69.070312 132.632812 C 66.554688 132.84375 64.644531 133.070312 63.347656 133.320312 L 61.636719 133.6875 L 57.421875 134.933594 L 55.9375 135.109375 L 53.847656 135.191406 " fill-opacity="1" fill-rule="nonzero"/><path fill="#000000" d="M 59.800781 163.785156 L 62.941406 163.722656 C 118.617188 162.691406 175.308594 161.738281 233.015625 160.855469 L 240.8125 160.683594 L 247.230469 160.4375 C 251.050781 160.246094 254.003906 160.035156 256.089844 159.796875 C 260.210938 159.296875 261.179688 158.847656 259.003906 158.445312 L 256.882812 158.199219 L 253.699219 158.027344 L 249.492188 157.949219 L 244.304688 157.980469 C 213.445312 158.542969 191.863281 158.921875 179.550781 159.128906 C 140.960938 159.753906 111.820312 160.210938 92.128906 160.496094 L 84.878906 160.660156 L 79.167969 160.894531 L 74.785156 161.191406 C 72.304688 161.40625 70.425781 161.640625 69.148438 161.890625 L 67.464844 162.261719 L 63.316406 163.519531 C 62.542969 163.667969 61.371094 163.753906 59.800781 163.785156 " fill-opacity="1" fill-rule="nonzero"/><path fill="#000000" d="M 63.734375 190.832031 L 66.863281 190.753906 C 122.339844 189.464844 178.832031 188.242188 236.339844 187.089844 C 247.5625 186.828125 255.222656 186.441406 259.328125 185.921875 C 263.429688 185.402344 264.398438 184.945312 262.226562 184.554688 L 260.109375 184.320312 L 256.9375 184.164062 L 252.742188 184.105469 L 247.574219 184.160156 C 216.824219 184.867188 195.316406 185.351562 183.050781 185.613281 C 144.59375 186.421875 115.558594 187.015625 95.9375 187.390625 L 88.710938 187.589844 L 83.019531 187.851562 L 78.65625 188.167969 C 76.183594 188.394531 74.3125 188.636719 73.039062 188.894531 L 71.367188 189.273438 L 67.238281 190.550781 C 66.46875 190.703125 65.296875 190.796875 63.734375 190.832031 " fill-opacity="1" fill-rule="nonzero"/><path fill="#000000" d="M 67.707031 221.253906 L 70.742188 221.167969 C 124.515625 219.746094 179.277344 218.390625 235.019531 217.101562 C 245.894531 216.816406 253.324219 216.40625 257.300781 215.878906 C 261.273438 215.351562 262.210938 214.894531 260.105469 214.507812 L 258.050781 214.277344 L 254.972656 214.128906 L 250.910156 214.078125 L 245.898438 214.148438 C 216.09375 214.925781 195.246094 215.460938 183.351562 215.75 C 146.078125 216.648438 117.929688 217.3125 98.914062 217.734375 L 91.910156 217.949219 C 87.804688 218.117188 84.554688 218.316406 82.164062 218.550781 C 79.769531 218.785156 77.957031 219.03125 76.722656 219.289062 L 75.101562 219.675781 L 71.105469 220.960938 C 70.355469 221.113281 69.222656 221.210938 67.707031 221.253906 " fill-opacity="1" fill-rule="nonzero"/><path fill="#000000" d="M 58.839844 254.1875 L 62.0625 254.121094 C 119.210938 253.027344 177.40625 252.003906 236.640625 251.054688 L 244.644531 250.871094 L 251.230469 250.617188 C 255.152344 250.425781 258.183594 250.207031 260.324219 249.96875 C 264.554688 249.460938 265.550781 249.011719 263.316406 248.613281 L 261.136719 248.371094 L 257.871094 248.203125 L 253.550781 248.128906 L 248.226562 248.167969 C 216.550781 248.761719 194.394531 249.171875 181.757812 249.386719 C 142.148438 250.0625 112.234375 250.550781 92.023438 250.859375 L 84.582031 251.03125 L 78.71875 251.273438 L 74.21875 251.574219 C 71.675781 251.792969 69.746094 252.027344 68.433594 252.28125 L 66.707031 252.652344 L 62.449219 253.917969 C 61.65625 254.066406 60.449219 254.15625 58.839844 254.1875 " fill-opacity="1" fill-rule="nonzero"/><path fill="#000000" d="M 75.988281 33.171875 L 76.070312 36.910156 C 77.394531 103.128906 78.652344 170.558594 79.839844 239.195312 C 80.105469 252.589844 80.5 261.738281 81.023438 266.640625 C 81.542969 271.539062 82 272.699219 82.390625 270.109375 L 82.625 267.585938 L 82.777344 263.796875 L 82.835938 258.796875 L 82.777344 252.625 C 82.050781 215.921875 81.554688 190.25 81.285156 175.609375 C 80.453125 129.707031 79.84375 95.050781 79.453125 71.632812 L 79.253906 63.003906 L 78.984375 56.214844 L 78.667969 51 C 78.4375 48.050781 78.195312 45.816406 77.9375 44.292969 L 77.554688 42.292969 L 76.273438 37.359375 C 76.125 36.4375 76.027344 35.042969 75.988281 33.171875 " fill-opacity="1" fill-rule="nonzero"/><g clip-path="url(#2242be4bd4)"><path fill="#000000" d="M 101.445312 31.5 L 101.480469 35.242188 C 101.984375 101.558594 102.40625 169.089844 102.746094 237.828125 L 102.847656 247.117188 L 103.03125 254.761719 L 103.285156 260.816406 L 103.589844 265.320312 C 104.050781 270.234375 104.492188 271.398438 104.914062 268.8125 L 105.179688 266.289062 L 105.382812 262.496094 L 105.5 257.488281 L 105.515625 251.308594 C 105.246094 214.554688 105.066406 188.84375 104.980469 174.179688 C 104.714844 128.210938 104.53125 93.5 104.433594 70.046875 L 104.335938 61.410156 L 104.152344 54.605469 L 103.898438 49.382812 C 103.707031 46.425781 103.492188 44.183594 103.253906 42.660156 L 102.898438 40.648438 L 101.675781 35.691406 L 101.511719 33.949219 L 101.445312 31.5 " fill-opacity="1" fill-rule="nonzero"/></g><path fill="#000000" d="M 124.714844 35.207031 L 124.839844 38.90625 C 126.882812 104.46875 128.875 171.230469 130.8125 239.191406 C 131.222656 252.453125 131.714844 261.507812 132.292969 266.355469 C 132.867188 271.203125 133.335938 272.34375 133.699219 269.777344 L 133.902344 267.273438 L 134.015625 263.523438 L 134.019531 258.566406 L 133.894531 252.457031 C 132.554688 210.519531 130.789062 150.785156 128.601562 73.253906 L 128.304688 64.710938 C 128.089844 59.707031 127.847656 55.746094 127.585938 52.832031 C 127.328125 49.914062 127.058594 47.703125 126.785156 46.199219 L 125.046875 39.347656 C 124.886719 38.4375 124.777344 37.054688 124.714844 35.207031 " fill-opacity="1" fill-rule="nonzero"/><path fill="#000000" d="M 145.40625 32.183594 L 145.464844 35.898438 C 146.429688 101.726562 147.320312 168.757812 148.132812 236.988281 L 148.296875 246.207031 L 148.535156 253.796875 C 148.722656 258.3125 148.929688 261.804688 149.167969 264.273438 C 149.664062 269.148438 150.113281 270.300781 150.515625 267.730469 L 150.765625 265.222656 L 150.9375 261.457031 L 151.023438 256.484375 L 150.996094 250.351562 C 150.472656 213.867188 150.117188 188.347656 149.925781 173.789062 C 149.34375 128.164062 148.921875 93.707031 148.660156 70.429688 L 148.503906 61.855469 L 148.273438 55.101562 L 147.984375 49.917969 C 147.769531 46.984375 147.539062 44.761719 147.292969 43.25 L 146.921875 41.257812 L 145.667969 36.347656 C 145.519531 35.429688 145.433594 34.042969 145.40625 32.183594 " fill-opacity="1" fill-rule="nonzero"/><path fill="#000000" d="M 164.308594 36.832031 L 164.375 40.476562 C 165.402344 105.023438 166.359375 170.753906 167.242188 237.660156 L 167.414062 246.699219 L 167.664062 254.140625 C 167.851562 258.570312 168.066406 261.992188 168.300781 264.414062 C 168.804688 269.191406 169.253906 270.320312 169.65625 267.800781 L 169.898438 265.339844 L 170.070312 261.648438 L 170.152344 256.773438 L 170.121094 250.757812 C 169.558594 214.984375 169.175781 189.957031 168.972656 175.683594 C 168.34375 130.945312 167.886719 97.160156 167.601562 74.332031 L 167.441406 65.921875 L 167.203125 59.300781 L 166.90625 54.21875 C 166.691406 51.34375 166.457031 49.164062 166.207031 47.679688 L 165.835938 45.726562 L 164.574219 40.914062 C 164.429688 40.015625 164.339844 38.65625 164.308594 36.832031 " fill-opacity="1" fill-rule="nonzero"/><path fill="#000000" d="M 181.828125 37.28125 L 181.941406 40.964844 C 183.820312 106.234375 185.644531 172.695312 187.410156 240.351562 C 187.789062 253.554688 188.257812 262.570312 188.824219 267.394531 C 189.386719 272.222656 189.851562 273.359375 190.21875 270.804688 L 190.433594 268.3125 L 190.554688 264.578125 L 190.570312 259.648438 L 190.460938 253.566406 C 189.222656 211.8125 187.609375 152.347656 185.617188 75.164062 L 185.339844 66.664062 C 185.136719 61.679688 184.910156 57.738281 184.65625 54.832031 C 184.398438 51.925781 184.136719 49.726562 183.867188 48.226562 L 182.148438 41.40625 C 181.988281 40.5 181.882812 39.125 181.828125 37.28125 " fill-opacity="1" fill-rule="nonzero"/><path fill="#000000" d="M 205.308594 32.902344 L 205.332031 36.65625 C 205.574219 103.207031 205.730469 170.96875 205.796875 239.945312 L 205.859375 249.265625 L 206.015625 256.9375 L 206.246094 263.011719 L 206.53125 267.535156 C 206.972656 272.46875 207.410156 273.636719 207.84375 271.042969 L 208.117188 268.511719 L 208.335938 264.710938 L 208.472656 259.683594 L 208.515625 253.484375 C 208.390625 216.601562 208.3125 190.800781 208.28125 176.085938 C 208.199219 129.960938 208.152344 95.128906 208.148438 71.597656 L 208.085938 62.925781 L 207.929688 56.097656 L 207.695312 50.855469 C 207.515625 47.890625 207.308594 45.640625 207.074219 44.109375 L 206.726562 42.089844 L 205.527344 37.113281 L 205.371094 35.363281 L 205.308594 32.902344 " fill-opacity="1" fill-rule="nonzero"/><path fill="#000000" d="M 222.5 34.027344 L 222.566406 43.851562 C 222.582031 47.953125 222.585938 51.316406 222.578125 53.945312 C 222.253906 141.261719 222.09375 196.292969 222.089844 219.039062 C 222.082031 242.175781 222.121094 259.984375 222.203125 272.457031 L 222.539062 272.273438 L 224.8125 269.417969 C 224.730469 255.953125 224.6875 242.855469 224.675781 230.128906 C 224.671875 210.867188 224.695312 193.046875 224.734375 176.671875 C 224.769531 162.039062 224.878906 133.804688 225.070312 91.96875 C 225.1875 68.914062 225.289062 52.140625 225.371094 41.644531 C 224.972656 41.324219 224.015625 38.78125 222.5 34.027344 Z M 222.5 34.027344 " fill-opacity="1" fill-rule="nonzero"/><path fill="#000000" d="M 242.488281 32.886719 L 242.507812 36.636719 C 242.75 103.082031 242.90625 170.746094 242.976562 239.617188 L 243.039062 248.921875 L 243.195312 256.585938 L 243.425781 262.652344 L 243.710938 267.167969 C 244.152344 272.089844 244.589844 273.257812 245.019531 270.667969 L 245.296875 268.140625 L 245.511719 264.34375 L 245.652344 259.328125 L 245.691406 253.136719 C 245.566406 216.308594 245.488281 190.546875 245.460938 175.855469 C 245.375 129.796875 245.328125 95.019531 245.324219 71.519531 L 245.261719 62.863281 L 245.105469 56.046875 L 244.871094 50.8125 C 244.691406 47.851562 244.484375 45.605469 244.253906 44.074219 L 243.902344 42.058594 L 242.703125 37.089844 L 242.546875 35.34375 L 242.488281 32.886719 " fill-opacity="1" fill-rule="nonzero"/></svg>