<svg xmlns="http://www.w3.org/2000/svg" xmlns:xlink="http://www.w3.org/1999/xlink" width="720" zoomAndPan="magnify" viewBox="0 0 540 540.000001" height="720" preserveAspectRatio="xMidYMid meet" version="1.0"><defs><clipPath id="a029bb716a"><path d="M 0.5 0 L 539.5 0 L 539.5 539 L 0.5 539 Z M 0.5 0 " clip-rule="nonzero"/></clipPath><clipPath id="086b8c3c89"><path d="M 294 66.964844 L 308 66.964844 L 308 142 L 294 142 Z M 294 66.964844 " clip-rule="nonzero"/></clipPath><clipPath id="d23848a87e"><path d="M 433 323 L 486.371094 323 L 486.371094 341 L 433 341 Z M 433 323 " clip-rule="nonzero"/></clipPath><clipPath id="24e6a3673f"><path d="M 275 394 L 286 394 L 286 471.964844 L 275 471.964844 Z M 275 394 " clip-rule="nonzero"/></clipPath><clipPath id="ba5258303c"><path d="M 53.671875 189 L 98 189 L 98 211 L 53.671875 211 Z M 53.671875 189 " clip-rule="nonzero"/></clipPath></defs><g clip-path="url(#a029bb716a)"><path fill="#ffffff" d="M 0.5 0 L 539.5 0 L 539.5 546.488281 L 0.5 546.488281 Z M 0.5 0 " fill-opacity="1" fill-rule="nonzero"/><path fill="#ffffff" d="M 0.5 0 L 539.5 0 L 539.5 539 L 0.5 539 Z M 0.5 0 " fill-opacity="1" fill-rule="nonzero"/><path fill="#ffffff" d="M 0.5 0 L 539.5 0 L 539.5 539 L 0.5 539 Z M 0.5 0 " fill-opacity="1" fill-rule="nonzero"/></g><path fill="#100f0d" d="M 464.589844 212.050781 C 427.691406 240.480469 424.667969 256.792969 469.625 272.121094 C 406.101562 289.195312 390.558594 305.28125 436.609375 349.152344 C 350.136719 333.921875 325.261719 346.472656 321.425781 429.316406 C 269.371094 364.738281 241.882812 369.304688 181.113281 432.667969 C 192.347656 370.078125 170.296875 366.277344 108.960938 390.019531 C 136.171875 351.101562 124.09375 339.722656 77.527344 338.585938 C 114.421875 310.160156 117.445312 293.851562 72.492188 278.519531 C 136.011719 261.445312 151.558594 245.355469 105.5 201.488281 C 191.976562 216.722656 216.851562 204.167969 220.683594 121.324219 C 272.742188 185.898438 300.230469 181.335938 360.996094 117.96875 C 349.765625 180.5625 371.8125 184.363281 433.152344 160.621094 C 405.941406 199.539062 418.023438 210.917969 464.589844 212.050781 " fill-opacity="1" fill-rule="evenodd"/><path fill="#ffffff" d="M 449.492188 216.988281 C 415.46875 243.199219 412.683594 258.238281 454.128906 272.375 C 395.566406 288.109375 381.230469 302.941406 423.691406 343.390625 C 343.964844 329.347656 321.03125 340.917969 317.496094 417.304688 C 269.5 357.765625 244.15625 361.972656 188.132812 420.390625 C 198.488281 362.683594 178.160156 359.179688 121.609375 381.066406 C 146.699219 345.1875 135.554688 334.695312 92.625 333.648438 C 126.644531 307.441406 129.433594 292.402344 87.988281 278.269531 C 146.550781 262.527344 160.878906 247.699219 118.417969 207.25 C 198.144531 221.292969 221.082031 209.71875 224.617188 133.339844 C 272.609375 192.878906 297.953125 188.664062 353.980469 130.246094 C 343.625 187.957031 363.953125 191.460938 420.503906 169.570312 C 395.417969 205.449219 406.554688 215.945312 449.492188 216.988281 " fill-opacity="1" fill-rule="evenodd"/><path fill="#666364" d="M 183.460938 171.292969 L 150.5 137.1875 L 152.855469 135.058594 L 183.460938 171.292969 " fill-opacity="1" fill-rule="nonzero"/><path fill="#666364" d="M 186.589844 132.855469 L 161.367188 85.972656 L 164.203125 84.558594 L 186.589844 132.855469 " fill-opacity="1" fill-rule="nonzero"/><path fill="#666364" d="M 299.316406 137.515625 L 313.269531 71.382812 L 316.441406 71.382812 L 299.316406 137.515625 " fill-opacity="1" fill-rule="nonzero"/><g clip-path="url(#086b8c3c89)"><path fill="#666364" d="M 294.195312 141.941406 L 304.601562 66.953125 L 307.734375 67.457031 L 294.195312 141.941406 " fill-opacity="1" fill-rule="nonzero"/></g><path fill="#666364" d="M 381.253906 153.632812 L 419.757812 111.773438 L 422.027344 113.976562 L 381.253906 153.632812 " fill-opacity="1" fill-rule="nonzero"/><path fill="#666364" d="M 390.699219 434.4375 L 351.851562 378.929688 L 393.253906 432.5625 L 390.699219 434.4375 " fill-opacity="1" fill-rule="nonzero"/><g clip-path="url(#d23848a87e)"><path fill="#666364" d="M 485.199219 340.144531 L 433.316406 323.28125 L 486.09375 337.105469 L 485.199219 340.144531 " fill-opacity="1" fill-rule="nonzero"/></g><path fill="#666364" d="M 432.007812 426.878906 L 362.597656 359.40625 L 434.183594 424.570312 L 432.007812 426.878906 " fill-opacity="1" fill-rule="nonzero"/><path fill="#666364" d="M 415.089844 394.035156 L 378.566406 361.8125 L 417.109375 391.585938 L 415.089844 394.035156 " fill-opacity="1" fill-rule="nonzero"/><g clip-path="url(#24e6a3673f)"><path fill="#666364" d="M 281.875 471.976562 L 275.816406 394.421875 L 285.027344 471.664062 L 281.875 471.976562 " fill-opacity="1" fill-rule="nonzero"/></g><path fill="#666364" d="M 267.25 446.757812 L 264.078125 446.683594 L 266.808594 397.308594 L 267.25 446.757812 " fill-opacity="1" fill-rule="nonzero"/><path fill="#666364" d="M 128.671875 463.214844 L 126.074219 461.398438 L 174.832031 394.449219 L 128.671875 463.214844 " fill-opacity="1" fill-rule="nonzero"/><path fill="#666364" d="M 59.304688 385.488281 L 57.777344 382.707031 L 103.457031 359.40625 L 59.304688 385.488281 " fill-opacity="1" fill-rule="nonzero"/><path fill="#666364" d="M 111.019531 236.898438 L 54.058594 222.359375 L 54.925781 219.3125 L 111.019531 236.898438 " fill-opacity="1" fill-rule="nonzero"/><g clip-path="url(#ba5258303c)"><path fill="#666364" d="M 97.402344 210.148438 L 53.847656 192.59375 L 55.132812 189.699219 L 97.402344 210.148438 " fill-opacity="1" fill-rule="nonzero"/></g><path fill="#666364" d="M 195.152344 168.960938 L 124.339844 76.433594 L 126.882812 74.542969 L 195.152344 168.960938 " fill-opacity="1" fill-rule="nonzero"/><path fill="#f4d906" d="M 430.890625 158.292969 L 426.71875 146.433594 L 415.527344 146.40625 L 424.144531 139.105469 L 419.976562 127.25 L 429.46875 134.59375 L 438.085938 127.300781 L 435.335938 139.136719 L 444.828125 146.480469 L 433.636719 146.453125 L 430.890625 158.292969 " fill-opacity="1" fill-rule="evenodd"/><path fill="#191716" d="M 430.882812 158.15625 C 431.289062 156.207031 431.707031 154.265625 432.125 152.324219 C 432.546875 150.339844 432.988281 148.359375 433.421875 146.375 L 433.460938 146.207031 L 433.625 146.207031 L 439.214844 146.148438 L 444.808594 146.121094 L 444.65625 146.777344 L 439.886719 143.140625 L 435.132812 139.476562 L 434.902344 139.296875 L 434.96875 139.003906 L 436.328125 133.082031 L 437.71875 127.167969 L 438.324219 127.636719 C 436.882812 128.847656 435.449219 130.0625 434 131.261719 C 432.554688 132.464844 431.109375 133.667969 429.660156 134.863281 L 429.492188 135 L 429.308594 134.859375 L 419.839844 127.476562 L 420.207031 127.167969 L 424.335938 139.035156 L 424.390625 139.195312 L 424.28125 139.292969 L 415.628906 146.546875 L 415.519531 146.234375 L 426.714844 146.332031 L 426.785156 146.332031 L 426.8125 146.402344 Z M 430.894531 158.417969 L 426.632812 146.46875 L 426.730469 146.542969 L 415.542969 146.578125 L 415.066406 146.578125 L 415.429688 146.265625 L 424.011719 138.921875 L 423.953125 139.175781 L 419.742188 127.332031 L 419.453125 126.519531 L 420.109375 127.023438 L 429.628906 134.328125 L 429.28125 134.328125 C 430.695312 133.085938 432.125 131.859375 433.550781 130.628906 C 434.976562 129.394531 436.414062 128.183594 437.839844 126.957031 L 438.734375 126.191406 L 438.449219 127.425781 L 437.089844 133.351562 L 435.707031 139.265625 L 435.535156 138.796875 L 440.277344 142.476562 L 445.007812 146.1875 L 445.859375 146.859375 L 444.855469 146.847656 L 439.253906 146.789062 L 433.652344 146.699219 L 433.855469 146.527344 C 433.367188 148.496094 432.898438 150.464844 432.402344 152.421875 C 431.910156 154.386719 431.429688 156.347656 430.925781 158.308594 L 430.894531 158.417969 " fill-opacity="1" fill-rule="nonzero"/><path fill="#f4d906" d="M 150.914062 158.878906 L 139.164062 163.34375 L 139.425781 174.53125 L 131.902344 166.109375 L 120.152344 170.582031 L 127.253906 160.910156 L 119.734375 152.484375 L 131.644531 154.925781 L 138.746094 145.246094 L 139.003906 156.433594 L 150.914062 158.878906 " fill-opacity="1" fill-rule="evenodd"/><path fill="#191716" d="M 150.777344 158.890625 C 148.820312 158.53125 146.867188 158.160156 144.910156 157.796875 C 142.914062 157.425781 140.925781 157.03125 138.933594 156.648438 L 138.765625 156.621094 L 138.757812 156.453125 L 138.554688 150.867188 L 138.382812 145.28125 L 139.042969 145.417969 L 135.53125 150.273438 L 131.988281 155.121094 L 131.816406 155.359375 L 131.523438 155.296875 L 125.5625 154.089844 L 119.613281 152.855469 L 120.066406 152.234375 C 121.3125 153.644531 122.570312 155.046875 123.804688 156.460938 C 125.042969 157.878906 126.285156 159.285156 127.515625 160.710938 L 127.660156 160.875 L 127.523438 161.058594 L 120.378906 170.710938 L 120.0625 170.351562 L 131.828125 165.921875 L 131.988281 165.859375 L 132.085938 165.972656 L 139.5625 174.429688 L 139.253906 174.546875 L 139.058594 163.351562 L 139.058594 163.285156 L 139.132812 163.257812 Z M 151.042969 158.863281 L 139.199219 163.433594 L 139.273438 163.335938 L 139.59375 174.519531 L 139.605469 174.992188 L 139.285156 174.636719 L 131.71875 166.246094 L 131.976562 166.300781 L 120.242188 170.816406 L 119.4375 171.125 L 119.925781 170.457031 L 126.984375 160.757812 L 126.996094 161.097656 C 125.714844 159.714844 124.453125 158.320312 123.183594 156.929688 C 121.910156 155.542969 120.660156 154.132812 119.402344 152.734375 L 118.613281 151.863281 L 119.855469 152.113281 L 125.8125 153.324219 L 131.765625 154.550781 L 131.296875 154.726562 L 134.859375 149.898438 L 138.441406 145.082031 L 139.09375 144.210938 L 139.109375 145.214844 L 139.195312 150.816406 L 139.253906 156.414062 L 139.074219 156.214844 C 141.054688 156.648438 143.03125 157.070312 145.003906 157.515625 C 146.980469 157.953125 148.957031 158.386719 150.925781 158.839844 L 151.042969 158.863281 " fill-opacity="1" fill-rule="nonzero"/><path fill="#f4d906" d="M 93.910156 389.953125 L 91.691406 405.6875 L 104.242188 412.226562 L 90.320312 415.414062 L 88.101562 431.148438 L 81.71875 417.382812 L 67.796875 420.566406 L 77.769531 408.875 L 71.386719 395.105469 L 83.9375 401.644531 L 93.910156 389.953125 " fill-opacity="1" fill-rule="evenodd"/><path fill="#191716" d="M 93.839844 390.109375 C 92.25 392.058594 90.652344 393.992188 89.046875 395.933594 C 87.417969 397.921875 85.773438 399.882812 84.128906 401.855469 L 83.992188 402.023438 L 83.808594 401.929688 L 77.496094 398.746094 L 71.199219 395.527344 L 71.753906 394.878906 L 74.996094 401.730469 L 78.199219 408.609375 L 78.355469 408.941406 L 78.109375 409.238281 L 73.132812 415.09375 L 68.132812 420.929688 L 67.722656 420.042969 C 70.042969 419.527344 72.367188 418.992188 74.691406 418.492188 C 77.011719 417.980469 79.332031 417.464844 81.660156 416.972656 L 81.929688 416.914062 L 82.046875 417.175781 L 88.382812 430.976562 L 87.789062 431.109375 L 90.058594 415.378906 L 90.09375 415.167969 L 90.277344 415.125 L 104.207031 412.015625 L 104.148438 412.421875 L 91.636719 405.808594 L 91.558594 405.769531 L 91.570312 405.667969 Z M 93.976562 389.804688 L 91.8125 405.703125 L 91.746094 405.5625 L 104.328125 412.027344 L 104.859375 412.300781 L 104.269531 412.445312 L 90.363281 415.699219 L 90.578125 415.449219 L 88.414062 431.191406 L 88.261719 432.273438 L 87.820312 431.324219 L 81.382812 417.589844 L 81.777344 417.789062 C 79.460938 418.359375 77.140625 418.90625 74.824219 419.457031 C 72.507812 420.023438 70.1875 420.542969 67.871094 421.089844 L 66.425781 421.429688 L 67.460938 420.210938 L 72.433594 414.347656 L 77.429688 408.511719 L 77.34375 409.136719 L 74.164062 402.246094 L 71.019531 395.332031 L 70.449219 394.082031 L 71.570312 394.679688 L 77.828125 398.003906 L 84.0625 401.359375 L 83.734375 401.433594 C 85.421875 399.507812 87.097656 397.574219 88.796875 395.660156 C 90.484375 393.742188 92.175781 391.820312 93.875 389.910156 L 93.976562 389.804688 " fill-opacity="1" fill-rule="nonzero"/><path fill="#f4d906" d="M 130.929688 405.808594 L 130.820312 413.09375 L 136.898438 415.351562 L 130.753906 417.597656 L 130.640625 424.875 L 126.953125 418.980469 L 120.804688 421.222656 L 124.675781 415.335938 L 120.988281 409.4375 L 127.066406 411.695312 L 130.929688 405.808594 " fill-opacity="1" fill-rule="evenodd"/><path fill="#191716" d="M 130.910156 405.886719 C 130.300781 406.867188 129.679688 407.835938 129.0625 408.8125 C 128.4375 409.804688 127.796875 410.789062 127.164062 411.785156 L 127.109375 411.867188 L 127.023438 411.832031 L 123.972656 410.746094 L 120.925781 409.640625 L 121.140625 409.316406 L 123.003906 412.246094 L 124.851562 415.191406 L 124.941406 415.335938 L 124.847656 415.484375 L 122.917969 418.425781 L 120.980469 421.363281 L 120.742188 420.984375 C 121.765625 420.617188 122.796875 420.242188 123.820312 419.882812 C 124.847656 419.515625 125.871094 419.152344 126.90625 418.796875 L 127.023438 418.757812 L 127.089844 418.867188 L 130.757812 424.78125 L 130.496094 424.875 L 130.632812 417.59375 L 130.632812 417.492188 L 130.714844 417.46875 L 136.875 415.253906 L 136.871094 415.449219 L 130.804688 413.15625 L 130.765625 413.136719 L 130.765625 413.09375 Z M 130.953125 405.738281 L 130.878906 413.09375 L 130.839844 413.03125 L 136.925781 415.253906 L 137.183594 415.351562 L 136.921875 415.449219 L 130.785156 417.71875 L 130.867188 417.597656 L 130.785156 424.875 L 130.777344 425.375 L 130.523438 424.96875 L 126.8125 419.089844 L 127.003906 419.160156 C 125.984375 419.550781 124.960938 419.933594 123.941406 420.316406 C 122.917969 420.703125 121.890625 421.074219 120.871094 421.453125 L 120.230469 421.691406 L 120.636719 421.078125 L 122.558594 418.128906 L 124.5 415.191406 L 124.496094 415.480469 L 122.65625 412.53125 L 120.828125 409.5625 L 120.5 409.027344 L 121.046875 409.238281 L 124.078125 410.386719 L 127.105469 411.5625 L 126.960938 411.613281 C 127.617188 410.644531 128.273438 409.664062 128.933594 408.699219 C 129.59375 407.730469 130.25 406.761719 130.914062 405.796875 L 130.953125 405.738281 " fill-opacity="1" fill-rule="nonzero"/></svg>