<svg xmlns="http://www.w3.org/2000/svg" xmlns:xlink="http://www.w3.org/1999/xlink" width="720" zoomAndPan="magnify" viewBox="0 0 540 540.000001" height="720" preserveAspectRatio="xMidYMid meet" version="1.0"><defs><clipPath id="920edf9492"><path d="M 0.5 0 L 539.5 0 L 539.5 539 L 0.5 539 Z M 0.5 0 " clip-rule="nonzero"/></clipPath><clipPath id="5599106647"><path d="M 112.472656 41.203125 L 427.640625 41.203125 L 427.640625 497 L 112.472656 497 Z M 112.472656 41.203125 " clip-rule="nonzero"/></clipPath></defs><g clip-path="url(#920edf9492)"><path fill="#ffffff" d="M 0.5 0 L 539.5 0 L 539.5 539 L 0.5 539 Z M 0.5 0 " fill-opacity="1" fill-rule="nonzero"/><path fill="#ffffff" d="M 0.5 0 L 539.5 0 L 539.5 539 L 0.5 539 Z M 0.5 0 " fill-opacity="1" fill-rule="nonzero"/></g><g clip-path="url(#5599106647)"><path fill="#f1b006" d="M 348.875 94.539062 C 349.203125 91.710938 350.582031 89.015625 351.765625 86.328125 C 354.457031 80.019531 357.542969 73.390625 360.699219 67.085938 C 361.222656 65.902344 362.800781 62.554688 363.917969 64 C 364.636719 64.855469 363.195312 67.085938 362.734375 68.070312 C 360.765625 72.011719 358.988281 75.820312 357.019531 79.757812 C 354.324219 85.144531 352.09375 90.660156 348.875 94.539062 Z M 314.851562 59.46875 C 318.199219 58.808594 315.835938 63.472656 315.375 64.785156 C 314.980469 65.902344 314.65625 68.398438 313.667969 68.53125 C 312.417969 68.597656 312.15625 66.492188 312.289062 64.917969 C 312.484375 62.484375 313.402344 59.730469 314.851562 59.46875 Z M 180.71875 59.730469 C 180.785156 59.730469 180.851562 59.730469 180.917969 59.730469 C 182.558594 61.894531 183.871094 64.261719 185.316406 66.558594 C 189.589844 73.257812 193.859375 80.21875 198.125 87.179688 C 203.054688 95.253906 206.007812 105.042969 211.003906 113.25 C 211.660156 114.300781 212.777344 115.417969 212.777344 116.859375 C 209.359375 117.585938 207.917969 114.367188 206.535156 112.199219 C 202.261719 105.105469 198.980469 97.488281 195.105469 89.941406 C 190.902344 81.660156 185.710938 73.125 181.636719 64.195312 C 180.984375 62.816406 180.0625 61.175781 180.394531 59.992188 C 180.457031 59.863281 180.589844 59.796875 180.71875 59.730469 Z M 238 81.925781 C 238.917969 81.597656 239.507812 82.386719 239.640625 83.632812 C 239.835938 85.144531 239.96875 88.363281 239.242188 88.625 C 237.40625 89.214844 236.226562 82.453125 238 81.925781 Z M 309.527344 87.570312 C 310.582031 89.015625 310.25 91.382812 310.117188 93.550781 C 309.921875 97.949219 309.464844 101.695312 308.871094 105.894531 C 308.738281 107.210938 308.671875 111.082031 307.230469 110.949219 C 306.046875 110.820312 306.4375 107.007812 306.507812 105.175781 C 306.835938 101.101562 307.230469 96.765625 307.886719 93.15625 C 308.214844 91.25 308.671875 88.625 309.398438 87.441406 C 309.527344 87.441406 309.527344 87.511719 309.527344 87.570312 Z M 246.730469 112.199219 C 245.351562 111.277344 245.222656 108.980469 244.566406 107.078125 C 244.304688 106.222656 244.105469 105.242188 243.78125 104.253906 C 243.453125 103.332031 242.859375 102.351562 243.054688 101.363281 C 243.1875 100.773438 244.042969 100.117188 244.828125 100.445312 C 246.140625 100.972656 246.601562 104.1875 246.929688 105.894531 C 247.390625 108.0625 247.980469 111.082031 246.730469 112.199219 Z M 133.886719 103.332031 C 137.628906 104.515625 141.4375 107.863281 144.332031 110.164062 C 151.03125 115.351562 156.546875 120.34375 162.460938 126.183594 C 164.496094 128.222656 166.925781 130.257812 168.765625 132.6875 C 169.289062 133.410156 170.210938 134.464844 169.355469 135.511719 C 168.105469 135.90625 167.253906 134.792969 166.601562 134.132812 C 157.070312 125.398438 147.746094 116.597656 137.695312 108.0625 C 136.25 106.816406 134.148438 105.242188 133.625 103.660156 C 133.625 103.464844 133.753906 103.398438 133.886719 103.332031 Z M 332.582031 127.960938 C 332.191406 123.757812 333.636719 120.277344 335.144531 116.539062 C 335.800781 115.023438 336.59375 113.382812 337.445312 111.609375 C 337.96875 110.425781 338.890625 107.863281 340.402344 107.472656 C 341.453125 107.210938 342.371094 107.863281 342.566406 108.457031 C 343.160156 110.164062 341.386719 112.921875 340.859375 114.035156 C 339.152344 117.652344 337.707031 120.671875 336 124.152344 C 335.210938 125.726562 334.226562 127.503906 332.582031 127.960938 Z M 367.332031 173.46875 C 367.660156 170.582031 370.15625 168.410156 371.996094 166.507812 C 377.644531 160.46875 383.621094 154.425781 389.46875 148.449219 C 393.410156 144.507812 397.679688 140.832031 401.621094 136.957031 C 405.691406 132.949219 409.960938 129.140625 413.902344 125.070312 C 414.03125 125.070312 414.101562 125.070312 414.101562 125.203125 C 411.605469 130.257812 407.726562 134.464844 403.917969 138.667969 C 400.113281 142.867188 396.234375 146.941406 392.359375 151.007812 C 386.644531 157.121094 380.535156 163.09375 374.230469 168.742188 C 373.242188 169.660156 372.125 170.648438 371.011719 171.5625 C 370.027344 172.417969 368.777344 173.402344 367.332031 173.46875 Z M 356.625 136.429688 C 358.070312 136.105469 359.976562 136.824219 359.515625 139.0625 C 359.253906 140.304688 355.972656 143.0625 354.261719 142.472656 C 351.699219 141.683594 353.800781 138.074219 355.179688 137.023438 C 355.507812 136.761719 356.101562 136.5 356.625 136.429688 Z M 186.171875 146.941406 C 187.878906 147.136719 192.214844 150.15625 191.753906 151.996094 C 191.558594 152.453125 190.835938 152.71875 190.375 152.71875 C 189.523438 152.585938 188.734375 151.078125 188.011719 150.222656 C 187.15625 149.171875 185.910156 148.183594 186.171875 146.941406 Z M 147.8125 174.191406 C 146.296875 174.257812 145.050781 173.339844 143.675781 172.746094 C 139.796875 171.105469 136.25 168.941406 132.707031 166.769531 C 130.46875 165.457031 128.039062 164.078125 125.675781 162.5 C 123.636719 161.121094 120.484375 159.285156 119.566406 157.121094 C 119.566406 156.921875 119.695312 156.855469 119.765625 156.792969 C 122.195312 157.382812 125.285156 159.480469 127.320312 160.730469 C 133.359375 164.410156 139.339844 167.359375 145.050781 171.367188 C 146.101562 172.089844 147.550781 172.8125 147.8125 174.191406 Z M 242.726562 170.515625 C 244.433594 170.382812 245.089844 172.484375 244.898438 174.71875 C 244.765625 176.492188 243.578125 178.066406 243.578125 179.445312 C 243.515625 180.628906 244.433594 182.335938 244.695312 183.714844 C 245.421875 187.195312 245.089844 191.332031 243.976562 194.027344 C 243.316406 195.601562 242.132812 196.714844 241.480469 198.09375 C 240.429688 200.460938 240.691406 204.730469 238.328125 204.792969 C 235.4375 204.925781 235.5 199.210938 234.972656 196.648438 C 234.777344 195.53125 234.449219 194.484375 234.382812 193.496094 C 234.1875 191.203125 235.105469 188.703125 235.632812 186.144531 C 236.160156 183.648438 235.828125 180.628906 236.75 178.265625 C 237.273438 176.882812 238.191406 175.441406 239.242188 173.996094 C 239.96875 172.945312 241.347656 170.582031 242.726562 170.515625 Z M 424.082031 177.734375 C 423.886719 178.851562 422.773438 179.773438 421.851562 180.429688 C 420.800781 181.085938 419.621094 181.675781 418.566406 182.265625 C 414.101562 184.632812 409.898438 187.0625 405.234375 189.492188 C 404.246094 189.953125 403.195312 190.542969 401.75 191.136719 C 401.160156 191.332031 398.402344 192.445312 398.007812 191.203125 C 397.746094 190.214844 399.519531 188.902344 400.175781 188.441406 C 403.0625 186.410156 406.484375 184.894531 409.699219 183.253906 C 411.867188 182.203125 414.03125 181.085938 416.265625 180.105469 C 418.632812 179.050781 421.453125 177.734375 424.082031 177.734375 Z M 164.628906 181.152344 C 165.746094 180.761719 168.433594 182.140625 168.304688 183.515625 C 168.171875 185.289062 166.398438 184.304688 165.347656 183.515625 C 164.824219 183.121094 162.789062 181.675781 164.628906 181.152344 Z M 207.714844 184.238281 C 212.050781 183.585938 210.410156 190.148438 206.863281 189.757812 C 205.746094 189.6875 205.089844 188.703125 205.023438 187.851562 C 204.761719 185.75 206.207031 184.4375 207.714844 184.238281 Z M 179.996094 192.117188 C 182.558594 191.203125 182.820312 195.53125 180.917969 195.734375 C 179.144531 195.929688 178.417969 192.707031 179.996094 192.117188 Z M 205.351562 200.261719 C 206.664062 200.066406 208.371094 201.378906 207.519531 203.347656 C 207.125 204.136719 204.234375 207.289062 203.25 205.320312 C 202.722656 204.199219 203.378906 201.511719 204.105469 200.789062 C 204.433594 200.460938 204.890625 200.394531 205.351562 200.261719 Z M 381.523438 200.789062 C 381.257812 202.691406 379.089844 203.613281 377.25 204.730469 C 376.132812 205.382812 374.949219 206.5 373.640625 206.171875 C 373.046875 206.042969 372.714844 205.320312 372.785156 204.730469 C 372.917969 203.675781 375.28125 202.953125 376.59375 202.367188 C 378.5 201.511719 379.875 200.789062 381.523438 200.789062 Z M 116.675781 209.324219 C 122.652344 209.457031 127.972656 210.964844 133.097656 212.214844 C 137.695312 213.398438 142.292969 214.445312 146.5625 215.5625 C 153.261719 217.207031 159.371094 219.570312 165.679688 221.804688 C 166.601562 222.128906 167.714844 222.519531 168.765625 222.984375 C 169.554688 223.3125 170.996094 223.578125 170.996094 224.820312 C 169.882812 225.414062 168.570312 224.820312 167.386719 224.628906 C 153.789062 222.257812 141.640625 218.257812 129.15625 214.515625 C 124.753906 213.136719 120.09375 212.28125 116.414062 209.789062 C 116.347656 209.527344 116.542969 209.457031 116.675781 209.324219 Z M 237.40625 210.769531 C 238.457031 210.574219 239.242188 211.164062 239.308594 212.148438 C 239.441406 214.445312 236.089844 214.316406 236.160156 212.214844 C 236.160156 211.757812 236.421875 211.03125 237.40625 210.769531 Z M 204.433594 214.515625 C 206.664062 214.183594 208.832031 216.023438 208.242188 218.714844 C 207.976562 219.699219 206.996094 220.6875 206.335938 221.734375 C 205.414062 223.3125 204.957031 224.496094 203.054688 223.96875 C 200.292969 223.25 200.359375 218.320312 201.804688 216.023438 C 202.464844 215.105469 203.449219 214.644531 204.433594 214.515625 Z M 424.9375 215.960938 C 425.527344 216.746094 423.886719 217.53125 423.164062 217.925781 C 420.40625 219.304688 416.992188 220.355469 413.902344 221.539062 C 405.628906 224.496094 396.5625 226.992188 387.761719 229.617188 C 384.539062 230.601562 381.320312 231.390625 377.515625 232.3125 C 377.050781 232.441406 374.558594 233.359375 374.359375 232.3125 C 374.097656 231.324219 376.394531 230.867188 376.921875 230.667969 C 384.277344 228.304688 391.898438 226.136719 398.992188 223.773438 C 405.167969 221.667969 411.34375 219.765625 417.84375 217.730469 C 419.949219 217.007812 423.164062 215.761719 424.9375 215.960938 Z M 320.367188 232.835938 C 322.730469 232.503906 324.964844 234.609375 324.964844 237.039062 C 324.964844 238.285156 324.375 239.339844 323.71875 240.257812 C 322.011719 242.6875 320.890625 246.363281 319.84375 249.644531 C 318.789062 252.929688 317.742188 256.34375 317.214844 260.347656 C 317.082031 261.601562 317.148438 262.910156 316.953125 264.160156 C 316.820312 264.882812 316.359375 265.605469 316.226562 266.460938 C 315.835938 268.367188 315.898438 270.460938 315.703125 272.695312 C 315.046875 280.378906 316.359375 289.046875 316.492188 295.484375 C 316.753906 305.863281 315.835938 318.863281 315.769531 329.171875 C 315.769531 331.800781 315.703125 334.492188 315.570312 336.984375 C 315.375 341.1875 316.226562 344.472656 315.179688 348.742188 C 314.785156 350.316406 314.0625 351.238281 313.007812 351.238281 C 310.910156 351.238281 310.84375 348.347656 310.777344 345.984375 C 310.582031 340.007812 309.855469 333.179688 310.117188 325.953125 C 310.320312 321.421875 310.449219 316.957031 310.449219 312.164062 C 310.449219 306.777344 310.972656 302.902344 310.648438 298.042969 C 310.515625 295.484375 310.117188 292.789062 310.117188 289.898438 C 310.117188 281.234375 310.382812 273.417969 310.84375 266.328125 C 311.171875 261.136719 310.25 255.226562 310.84375 250.042969 C 311.433594 245.050781 312.617188 239.730469 314.980469 236.445312 C 315.441406 235.789062 316.425781 235.398438 317.214844 234.476562 C 318.265625 233.359375 318.988281 233.03125 320.367188 232.835938 Z M 198.847656 241.570312 C 198.585938 238.351562 202.132812 236.839844 204.171875 238.8125 C 205.945312 240.519531 204.824219 244.328125 202.132812 244.589844 C 200.359375 244.785156 199.375 243.144531 198.847656 241.570312 Z M 233.140625 244.722656 C 234.382812 244.460938 234.515625 246.953125 234.515625 247.871094 C 234.582031 252.867188 233.730469 257.988281 233.070312 263.636719 C 232.675781 266.722656 232.214844 268.691406 231.691406 271.1875 C 231.296875 273.285156 230.902344 277.164062 229.132812 277.164062 C 226.765625 277.097656 227.945312 271.515625 228.339844 269.414062 C 228.605469 267.703125 228.738281 266.519531 228.996094 265.210938 C 229.328125 263.832031 229.785156 262.648438 230.050781 261.398438 C 230.707031 258.25 230.707031 255.6875 230.96875 252.535156 C 231.167969 250.371094 231.363281 245.050781 233.140625 244.722656 Z M 198.71875 255.6875 C 200.625 255.425781 202.132812 256.738281 202.261719 258.707031 C 202.328125 259.957031 201.210938 263.433594 200.359375 264.09375 C 200.164062 264.222656 199.574219 264.421875 199.441406 264.488281 C 195.828125 265.015625 194.710938 258.777344 196.683594 256.671875 C 197.207031 256.082031 197.863281 255.816406 198.71875 255.6875 Z M 410.945312 259.824219 C 411.800781 259.824219 414.625 259.628906 417.1875 259.824219 C 419.027344 259.957031 421.917969 260.152344 422.046875 261.269531 C 422.25 262.910156 417.910156 263.171875 416.398438 263.371094 C 411.667969 263.832031 407.203125 264.683594 402.34375 264.753906 C 394 264.949219 383.949219 266.128906 374.625 267.179688 C 373.046875 267.3125 368.710938 267.96875 368.582031 266.128906 C 368.449219 264.683594 370.945312 264.355469 372.585938 263.957031 C 381.191406 261.925781 390.128906 261.46875 399.585938 260.546875 C 403.0625 260.21875 406.875 260.019531 410.945312 259.824219 Z M 132.898438 262.910156 C 131.71875 263.832031 129.941406 263.433594 128.367188 263.371094 C 126.726562 263.242188 125.082031 263.105469 123.507812 262.910156 C 120.222656 262.582031 116.675781 262.84375 114.773438 261.203125 C 117.398438 260.152344 121.800781 260.746094 125.476562 260.941406 C 126.925781 261.074219 128.5 261.136719 129.882812 261.269531 C 131.125 261.398438 132.835938 261.46875 132.898438 262.910156 Z M 162.328125 262.125 C 163.3125 261.203125 165.347656 261.46875 167.320312 261.601562 C 168.765625 261.664062 171.328125 261.730469 171.199219 262.910156 C 171.066406 264.289062 167.84375 263.371094 166.792969 263.242188 C 164.953125 262.976562 163.246094 262.976562 162.328125 262.125 Z M 196.878906 276.441406 C 197.601562 276.3125 198.914062 276.507812 199.441406 277.359375 C 200.554688 279.003906 199.175781 281.757812 198.847656 283.664062 C 197.992188 288.324219 197.46875 292.789062 197.273438 297.78125 C 197.207031 300.078125 197.46875 303.890625 196.289062 304.21875 C 195.304688 304.542969 194.316406 303.300781 193.859375 302.378906 C 192.542969 299.621094 192.871094 294.566406 193.066406 291.152344 C 193.203125 288.984375 193.394531 286.027344 193.597656 283.859375 C 193.859375 280.574219 193.917969 276.898438 196.878906 276.441406 Z M 209.359375 288.390625 C 209.359375 287.601562 229.394531 284.191406 231.429688 283.929688 C 243.316406 282.484375 261.183594 280.3125 272.285156 285.304688 C 273.601562 285.894531 276.027344 287.339844 275.832031 288.785156 C 275.699219 289.707031 273.992188 290.164062 273.335938 290.226562 C 272.019531 290.425781 270.644531 290.03125 269.394531 289.898438 C 256.71875 288.722656 240.824219 290.226562 228.015625 290.753906 C 224.992188 290.886719 209.160156 291.152344 209.359375 288.390625 Z M 377.121094 293.515625 C 377.644531 293.515625 381.058594 293.121094 381.320312 294.367188 C 381.585938 295.484375 380.078125 295.878906 378.894531 295.878906 C 377.1875 295.945312 373.113281 295.878906 372.980469 294.761719 C 372.917969 293.839844 374.296875 293.777344 374.625 293.710938 C 375.542969 293.578125 376.070312 293.578125 377.121094 293.515625 Z M 398.269531 295.15625 C 399.847656 294.957031 402.472656 294.828125 402.867188 296.335938 C 403.59375 298.765625 400.503906 298.042969 398.730469 297.648438 C 397.8125 297.453125 396.5625 297.320312 396.496094 296.402344 C 396.433594 295.285156 397.679688 295.285156 398.269531 295.15625 Z M 423.625 298.964844 C 422.707031 296.929688 427.632812 296.273438 426.976562 298.503906 C 426.710938 299.425781 424.28125 298.699219 423.625 298.964844 Z M 112.472656 315.246094 C 112.867188 314.265625 114.050781 313.742188 114.96875 313.277344 C 118.183594 311.835938 121.996094 311.113281 125.675781 310.128906 C 139.929688 306.320312 156.351562 302.902344 170.605469 299.6875 C 171.128906 299.621094 172.179688 299.425781 172.378906 300.144531 C 172.640625 301.261719 169.949219 301.789062 169.488281 301.984375 C 161.273438 304.675781 151.753906 306.386719 142.949219 308.355469 C 137.695312 309.535156 132.636719 310.652344 127.644531 311.835938 C 122.589844 313.082031 117.660156 314.660156 112.472656 315.246094 Z M 419.554688 330.484375 C 418.699219 331.074219 417.515625 330.746094 416.59375 330.617188 C 409.832031 329.765625 403.59375 327.726562 397.21875 326.214844 C 391.898438 324.902344 386.183594 323.660156 380.929688 322.078125 C 379.285156 321.554688 377.578125 321.03125 376.722656 319.71875 C 376.859375 319.125 377.515625 319.320312 378.042969 319.257812 C 381.652344 318.925781 385.855469 320.175781 389.46875 320.964844 C 396.957031 322.539062 403.855469 324.046875 410.8125 326.085938 C 412.460938 326.542969 414.234375 327.066406 415.742188 327.726562 C 417.1875 328.320312 419.09375 328.910156 419.554688 330.484375 Z M 169.488281 328.648438 C 169.027344 330.15625 166.992188 330.21875 165.679688 330.746094 C 164.230469 331.207031 162.789062 332.128906 161.34375 332.0625 C 161.738281 330.421875 163.640625 329.699219 165.414062 329.039062 C 166.730469 328.582031 168.433594 327.726562 169.488281 328.648438 Z M 219.472656 330.945312 C 220.789062 330.484375 222.761719 331.273438 224.203125 331.667969 C 231.167969 333.375 239.441406 334.425781 247.390625 334.820312 C 250.347656 334.949219 253.695312 334.820312 257.179688 334.820312 C 263.550781 334.820312 269.65625 334.097656 275.699219 333.375 C 277.210938 333.246094 278.851562 333.113281 280.363281 332.917969 C 283.777344 332.324219 291.199219 331.074219 293.828125 332.652344 C 294.617188 333.113281 295.207031 334.164062 295.273438 334.949219 C 295.535156 338.300781 291.199219 339.417969 288.378906 340.273438 C 285.097656 341.386719 281.285156 341.386719 278.261719 341.515625 C 274.386719 341.714844 271.167969 341.648438 267.75 341.648438 C 258.164062 341.515625 246.402344 339.941406 236.554688 338.167969 C 232.019531 337.3125 226.570312 336.070312 222.101562 334.292969 C 220.855469 333.832031 218.425781 332.980469 218.617188 331.734375 C 218.6875 331.273438 218.882812 331.144531 219.472656 330.945312 Z M 136.054688 341.714844 C 136.1875 342.566406 135.265625 342.699219 134.742188 342.964844 C 132.113281 344.40625 128.894531 345.589844 125.875 346.773438 C 124.691406 347.230469 123.3125 347.890625 122.066406 347.625 C 122.328125 346.507812 123.703125 346.046875 124.753906 345.523438 C 126.855469 344.605469 128.894531 343.621094 131.125 342.699219 C 132.242188 342.175781 133.558594 341.582031 134.539062 341.449219 C 134.933594 341.386719 135.792969 341.257812 136.054688 341.714844 Z M 384.410156 351.5 C 380.992188 350.25 376.988281 349.992188 373.503906 348.414062 C 371.273438 347.429688 369.105469 346.179688 366.609375 344.867188 C 365.953125 344.472656 364.835938 343.949219 364.769531 343.292969 C 364.574219 342.175781 365.492188 341.847656 366.609375 342.042969 C 368.1875 342.367188 370.027344 343.226562 371.667969 343.882812 C 374.949219 345.261719 377.382812 347.164062 380.207031 348.941406 C 381.652344 349.921875 383.230469 350.511719 384.410156 351.5 Z M 183.675781 353.207031 C 184.859375 353.074219 185.910156 353.859375 185.84375 355.242188 C 185.78125 356.820312 183.609375 357.738281 182.363281 356.683594 C 180.984375 355.507812 181.96875 353.339844 183.675781 353.207031 Z M 204.300781 356.164062 C 205.023438 356.03125 205.675781 356.226562 206.140625 356.753906 C 207.0625 357.871094 207.453125 363.058594 205.945312 363.386719 C 203.25 363.976562 200.757812 356.753906 204.300781 356.164062 Z M 393.214844 357.476562 C 394.457031 356.949219 396.367188 358.199219 396.167969 359.574219 C 395.773438 362.207031 390.914062 358.460938 393.214844 357.476562 Z M 297.445312 359.773438 C 299.480469 359.710938 302.566406 360.300781 302.433594 363.253906 C 301.976562 370.542969 213.167969 365.882812 217.371094 364.832031 C 221.511719 363.777344 226.175781 363.710938 231.167969 363.1875 C 236.160156 362.664062 242.003906 362.140625 247.585938 362.335938 C 253.566406 362.597656 260.066406 362.335938 266.242188 362.335938 C 268.933594 362.335938 271.628906 362.730469 274.191406 362.535156 C 276.816406 362.402344 279.378906 362.207031 281.875 362.070312 C 283.1875 361.941406 284.769531 362.140625 285.6875 362.070312 C 286.472656 361.941406 287.261719 361.742188 288.179688 361.613281 C 289.757812 361.480469 291.464844 361.613281 292.582031 361.347656 C 294.355469 360.828125 295.011719 359.839844 297.445312 359.773438 Z M 176.648438 361.21875 C 176.777344 361.21875 176.847656 361.21875 176.910156 361.21875 C 176.976562 362.730469 175.332031 363.449219 174.414062 364.175781 C 171.328125 366.601562 168.238281 369.164062 165.019531 371.527344 C 160.816406 374.679688 156.285156 377.636719 152.078125 380.789062 C 144.59375 386.300781 137.496094 392.148438 130.011719 397.667969 C 129.089844 398.386719 127.777344 399.765625 126.398438 399.046875 C 126.070312 397.472656 127.582031 396.550781 128.4375 395.761719 C 141.046875 384.535156 156.085938 376.0625 170.078125 365.945312 C 171.128906 365.226562 172.246094 364.4375 173.296875 363.710938 C 174.476562 362.859375 175.398438 361.742188 176.648438 361.21875 Z M 350.316406 367.785156 C 352.09375 368.113281 353.996094 370.019531 355.707031 371.328125 C 357.347656 372.582031 358.988281 373.828125 360.433594 374.945312 C 363.65625 377.375 367.136719 379.605469 370.289062 381.707031 C 373.703125 383.941406 376.722656 386.433594 379.875 388.796875 C 383.097656 391.230469 386.578125 393.132812 389.402344 395.824219 C 388.351562 395.890625 387.5 395.105469 386.707031 394.710938 C 380.402344 391.296875 374.6875 387.027344 368.644531 383.28125 C 365.226562 381.117188 361.878906 378.882812 358.660156 376.386719 C 357.148438 375.144531 355.640625 373.761719 354.128906 372.449219 C 352.617188 371.132812 350.84375 370.085938 349.988281 368.246094 C 350.121094 368.113281 350.1875 367.917969 350.316406 367.785156 Z M 419.683594 368.445312 C 421.128906 368.3125 424.675781 369.492188 424.742188 371.398438 C 424.808594 374.21875 421.394531 372.839844 420.011719 372.054688 C 419.355469 371.660156 417.710938 371.132812 417.710938 369.886719 C 417.710938 368.769531 418.765625 368.445312 419.683594 368.445312 Z M 344.933594 388.933594 C 343.621094 389.195312 342.304688 388.339844 341.386719 387.488281 C 340.402344 386.699219 339.152344 385.710938 338.957031 384.730469 C 338.824219 383.480469 339.8125 382.234375 341.257812 382.824219 C 341.714844 383.085938 342.304688 384.398438 342.828125 384.992188 C 343.75 386.300781 345 387.089844 344.933594 388.933594 Z M 191.953125 385.515625 C 192.085938 387.089844 190.769531 388.535156 189.851562 389.851562 C 183.546875 399.046875 175.726562 407.253906 169.027344 416.25 C 162.394531 425.179688 156.085938 434.574219 148.730469 443.109375 C 147.746094 444.289062 146.433594 445.671875 144.527344 445.40625 C 143.738281 444.160156 144.132812 443.308594 144.394531 442.515625 C 145.316406 439.824219 147.480469 437 149.253906 434.375 C 152.804688 429.058594 156.21875 424.328125 160.160156 419.402344 C 162.128906 417.039062 164.167969 414.804688 166.136719 412.503906 C 172.113281 405.613281 178.027344 398.78125 184.597656 392.214844 C 186.828125 390.050781 188.734375 387.292969 190.902344 385.648438 C 191.097656 385.515625 191.425781 385.253906 191.953125 385.515625 Z M 268.933594 388.535156 C 274.125 387.746094 275.699219 393.328125 276.617188 397.859375 C 278.132812 405.089844 279.113281 413.492188 279.839844 421.308594 C 280.5625 428.992188 280.5625 437.261719 280.167969 445.40625 C 279.96875 449.082031 279.707031 453.027344 279.644531 457.03125 C 279.507812 462.941406 278.917969 468.984375 279.246094 475.351562 C 279.3125 477.320312 279.707031 479.421875 279.644531 481.460938 C 279.578125 482.445312 279.179688 483.820312 279.246094 484.871094 C 279.3125 486.382812 280.101562 487.433594 280.035156 488.878906 C 279.90625 492.03125 277.804688 495.253906 274.453125 496.167969 C 268.738281 497.8125 262.628906 492.097656 265.191406 485.859375 C 265.453125 485.269531 265.914062 484.742188 266.046875 484.019531 C 266.179688 482.96875 265.785156 482.179688 265.851562 480.609375 C 265.851562 478.503906 266.179688 476.46875 266.242188 474.566406 C 266.769531 462.347656 265.648438 448.691406 264.664062 435.421875 C 264.140625 427.609375 264.140625 421.441406 264.074219 413.425781 C 264.007812 409.683594 264.074219 405.152344 264.140625 401.207031 C 264.339844 395.761719 263.8125 389.328125 268.933594 388.535156 Z M 317.671875 395.433594 C 315.835938 395.039062 313.140625 392.476562 313.335938 390.246094 C 313.402344 389.261719 314.65625 388.273438 315.703125 389.128906 C 316.226562 389.589844 315.964844 390.179688 316.097656 390.96875 C 316.359375 392.609375 318.132812 393.855469 317.671875 395.433594 Z M 226.175781 389.652344 C 225.980469 390.640625 226.242188 391.492188 226.039062 392.347656 C 223.808594 392.542969 223.609375 387.683594 226.175781 389.652344 Z M 320.960938 397.472656 C 321.613281 397.925781 322.011719 399.046875 321.878906 399.964844 C 321.417969 399.308594 320.5625 398.324219 320.960938 397.472656 Z M 353.410156 398.714844 C 357.28125 399.238281 359.386719 402.460938 362.074219 404.890625 C 364.375 406.992188 366.410156 409.03125 368.382812 410.996094 C 372.648438 415.199219 376.460938 419.730469 380.207031 423.933594 C 384.144531 428.464844 388.152344 432.734375 391.960938 437.066406 C 394.855469 440.414062 397.878906 443.503906 401.03125 446.65625 C 402.011719 447.574219 403.195312 448.496094 403.917969 449.738281 C 401.09375 448.496094 398.730469 446.390625 396.367188 444.488281 C 389.535156 438.839844 383.359375 432.144531 376.988281 425.835938 C 370.816406 419.597656 364.574219 413.09375 358.464844 406.332031 C 357.542969 405.351562 356.5625 404.167969 355.507812 402.917969 C 354.457031 401.800781 353.144531 400.226562 353.210938 399.046875 C 353.210938 398.847656 353.277344 398.78125 353.410156 398.714844 Z M 241.480469 405.089844 C 242.265625 407.121094 241.808594 409.355469 241.480469 411.390625 C 240.5625 417.367188 238.980469 423.472656 237.476562 429.1875 C 236.027344 434.765625 234.777344 440.941406 232.742188 446.324219 C 232.152344 447.902344 231.363281 449.875 229.984375 450.53125 C 229.394531 446.460938 230.578125 442.253906 231.429688 438.25 C 233.007812 430.828125 234.914062 423.410156 236.882812 415.726562 C 237.273438 414.085938 237.667969 412.113281 238.328125 410.144531 C 238.917969 408.300781 239.507812 404.691406 241.480469 405.089844 Z M 325.160156 407.253906 C 325.292969 407.253906 325.359375 407.253906 325.492188 407.253906 C 328.445312 411.191406 330.875 415.65625 333.503906 419.925781 C 336.199219 424.132812 338.890625 428.398438 341.257812 432.796875 C 343.75 437.394531 345.785156 442.1875 347.757812 447.050781 C 349.203125 450.597656 350.84375 454.273438 352.816406 457.421875 C 353.410156 458.472656 354.585938 459.589844 354.261719 460.972656 C 351.304688 461.890625 349.597656 458.804688 348.347656 457.03125 C 344.078125 450.789062 340.925781 443.832031 337.773438 436.542969 C 333.636719 426.953125 328.179688 418.085938 325.292969 407.582031 C 325.230469 407.515625 325.160156 407.382812 325.160156 407.253906 Z M 219.015625 409.355469 C 219.210938 411.390625 217.832031 413.492188 216.976562 415.066406 C 215.136719 415.132812 217.175781 408.300781 219.015625 409.355469 Z M 407.597656 409.355469 C 408.84375 409.089844 411.34375 410.078125 411.539062 411.261719 C 411.734375 412.308594 411.078125 413.03125 409.960938 412.835938 C 409.371094 412.707031 404.507812 409.945312 407.597656 409.355469 Z M 207.386719 438.378906 C 207.585938 440.546875 207.125 442.714844 206.535156 444.75 C 205.285156 449.613281 203.1875 453.945312 201.210938 458.472656 C 200.886719 459.199219 200.492188 460.777344 199.769531 460.839844 C 198.253906 461.035156 198.652344 459.066406 198.847656 458.144531 C 199.574219 454.996094 200.757812 452.171875 201.738281 449.28125 C 203.25 444.878906 205.023438 441.335938 207.191406 438.378906 C 207.257812 438.378906 207.324219 438.378906 207.386719 438.378906 Z M 326.347656 474.757812 C 323.980469 473.316406 322.996094 470.558594 321.746094 467.867188 C 318.988281 461.5625 316.226562 454.46875 313.730469 447.441406 C 313.335938 446.324219 311.367188 441.402344 314.125 441.859375 C 315.246094 442.054688 315.898438 444.421875 316.292969 445.472656 C 319.054688 452.105469 321.613281 459.261719 324.175781 466.027344 C 325.160156 468.71875 326.476562 471.671875 326.347656 474.757812 Z M 392.753906 84.15625 C 392.886719 84.15625 392.820312 84.289062 392.753906 84.289062 C 388.480469 94.335938 382.375 102.808594 376.394531 111.609375 C 375.542969 112.859375 374.558594 114.367188 373.375 115.878906 C 372.648438 116.929688 371.207031 119.753906 370.027344 119.683594 C 368.972656 119.683594 368.777344 118.566406 369.171875 117.324219 C 370.222656 114.5 371.863281 112.394531 373.375 110.359375 C 378.828125 103.136719 384.015625 95.847656 389.402344 88.6875 C 390.519531 87.246094 391.632812 85.339844 392.753906 84.15625 Z M 233.664062 68.003906 C 230.96875 68.925781 229.984375 65.773438 229.261719 63.671875 C 228.472656 61.632812 227.621094 59.46875 226.960938 56.839844 C 226.039062 53.160156 225.058594 49.878906 224.070312 46.132812 C 223.679688 44.492188 222.890625 41.542969 224.925781 41.40625 C 226.632812 41.34375 227.75 45.679688 228.339844 47.1875 C 229.132812 49.289062 229.917969 51.847656 230.769531 53.691406 C 232.347656 56.972656 232.808594 60.386719 233.597656 64.523438 C 233.792969 65.703125 234.449219 67.015625 233.664062 68.003906 Z M 310.25 141.683594 C 311.300781 141.488281 312.8125 141.683594 313.535156 141.945312 C 315.246094 142.738281 316.953125 145.035156 318.003906 147.726562 C 320.367188 149.699219 322.667969 151.796875 324.765625 154.03125 C 326.476562 155.867188 328.25 157.839844 329.171875 159.875 C 329.761719 161.121094 330.285156 162.765625 329.695312 164.410156 C 327.066406 164.800781 324.765625 163.421875 322.929688 162.042969 C 321.019531 160.730469 319.316406 159.21875 317.542969 157.972656 L 317.082031 157.578125 C 316.6875 157.972656 316.226562 158.238281 315.703125 158.429688 C 311.300781 160.269531 309.855469 156 308.148438 153.441406 C 307.625 152.523438 307.101562 151.53125 306.640625 150.417969 L 306.308594 150.222656 C 304.277344 148.972656 302.304688 147.921875 300.335938 146.742188 C 298.359375 145.496094 296.261719 144.378906 293.828125 143.71875 C 288.773438 142.34375 283.84375 142.144531 278.199219 141.683594 C 275.242188 141.421875 272.21875 141.289062 269.332031 141.355469 C 266.636719 141.421875 263.941406 141.160156 261.378906 141.226562 C 258.691406 141.355469 255.863281 141.886719 253.171875 142.277344 C 244.765625 143.394531 237.929688 145.886719 230.707031 148.253906 C 225.910156 149.828125 221.117188 151.140625 216.976562 153.507812 C 215.664062 157.839844 214.613281 162.4375 213.5625 167.03125 C 217.898438 166.441406 221.710938 164.867188 227.09375 164.148438 C 229.328125 163.816406 231.757812 163.355469 234.058594 162.765625 C 236.421875 162.175781 239.507812 162.371094 239.773438 164.867188 C 239.96875 167.429688 236.882812 168.347656 234.914062 168.480469 C 232.019531 168.613281 229.523438 169.003906 227.289062 169.464844 C 223.476562 170.316406 219.605469 170.777344 216.054688 171.367188 C 214.875 171.5 213.5625 171.5625 212.445312 171.828125 C 211.394531 172.089844 210.804688 173.140625 209.554688 173.078125 C 208.179688 173.007812 206.796875 171.699219 206.335938 170.382812 C 205.023438 166.769531 206.664062 162.042969 207.78125 159.414062 C 209.292969 156 211.132812 153.640625 213.167969 151.269531 C 215.46875 148.515625 217.109375 146.804688 220.589844 145.167969 C 223.546875 143.789062 226.570312 142.210938 229.722656 140.964844 C 242.726562 135.773438 259.480469 133.871094 274.914062 133.210938 C 280.890625 132.949219 286.734375 133.871094 292.582031 134.792969 C 298.230469 135.644531 302.898438 137.679688 307.363281 140.304688 C 308.148438 140.832031 308.9375 141.289062 309.726562 141.75 C 309.855469 141.75 310.054688 141.683594 310.25 141.683594 Z M 293.042969 304.542969 C 297.246094 304.019531 300.335938 306.777344 299.941406 311.113281 C 299.742188 313.152344 298.757812 315.578125 297.246094 316.894531 C 294.816406 319.058594 290.875 318.402344 289.101562 315.777344 C 286.472656 311.898438 287.785156 305.925781 291.925781 304.675781 C 292.253906 304.542969 292.648438 304.613281 293.042969 304.542969 Z M 275.109375 49.75 C 276.550781 49.09375 276.6875 51.191406 276.816406 52.441406 L 279.441406 104.914062 C 279.644531 107.734375 280.296875 111.015625 277.34375 110.949219 C 274.582031 110.886719 274.980469 107.667969 274.914062 105.175781 C 274.191406 88.164062 275.109375 70.894531 274.453125 53.753906 C 274.386719 52.246094 274.253906 50.144531 275.109375 49.75 " fill-opacity="1" fill-rule="evenodd"/></g><path fill="#2e2316" d="M 269.722656 141.160156 C 270.25 140.109375 271.691406 139.976562 272.808594 139.78125 C 277.476562 139.0625 283.125 139.0625 288.511719 139.519531 C 289.695312 139.585938 292.648438 141.355469 292.1875 142.800781 C 291.859375 143.851562 290.085938 143.324219 289.296875 143.195312 C 284.566406 142.671875 278.917969 141.886719 273.730469 141.683594 C 272.484375 141.621094 270.578125 142.011719 269.722656 141.160156 Z M 346.835938 168.148438 C 349.074219 171.300781 351.238281 175.113281 353.210938 179.050781 C 354.128906 180.890625 355.378906 183.058594 354.128906 184.828125 C 354.984375 188.902344 355.90625 194.945312 355.507812 200.722656 C 355.378906 202.367188 355.441406 204.664062 354.324219 205.320312 C 353.472656 205.847656 352.355469 205.382812 351.566406 205.78125 C 351.171875 207.09375 351.371094 208.933594 351.371094 210.574219 C 350.582031 210.640625 350.054688 209.789062 349.398438 209.324219 C 347.425781 207.941406 345.128906 206.371094 343.027344 205.054688 C 344.476562 207.023438 347.234375 209.195312 349.597656 211.097656 C 350.453125 211.757812 351.503906 212.347656 351.964844 212.933594 C 352.617188 213.789062 353.144531 215.433594 353.539062 216.746094 C 353.867188 218.058594 354.457031 219.964844 353.933594 221.40625 C 353.472656 222.722656 351.832031 222.984375 350.121094 223.25 C 349.597656 225.675781 350.121094 229.226562 349.792969 231.789062 C 349.792969 232.109375 349.074219 231.457031 348.8125 231.195312 C 346.835938 229.550781 344.867188 227.644531 343.027344 225.742188 C 342.304688 225.023438 341.519531 223.96875 340.402344 224.101562 C 340.140625 224.820312 340.925781 225.414062 341.386719 225.9375 C 343.488281 228.304688 346.183594 230.867188 348.679688 233.03125 C 349.664062 233.886719 351.171875 234.871094 351.765625 235.726562 C 353.210938 237.890625 353.410156 243.605469 349.203125 242.027344 C 348.8125 244.785156 349.136719 248.265625 348.546875 250.894531 C 348.019531 251.023438 347.691406 250.371094 347.367188 250.042969 C 345.328125 248.265625 343.222656 246.230469 340.925781 244.589844 C 340.074219 243.933594 339.023438 243.015625 337.839844 243.144531 C 337.96875 244.519531 339.285156 245.578125 340.335938 246.628906 C 342.304688 248.660156 344.671875 250.5 346.902344 252.402344 C 348.019531 253.390625 349.597656 254.371094 350.253906 255.292969 C 350.976562 256.410156 352.421875 260.28125 351.433594 262.125 C 350.910156 263.105469 349.464844 263.570312 348.152344 263.636719 C 348.21875 266.460938 347.5625 269.152344 347.757812 271.777344 C 347.425781 271.910156 347.164062 271.449219 346.902344 271.25 C 346.050781 270.460938 345.195312 269.546875 344.277344 268.691406 C 343.027344 267.574219 341.78125 266.257812 340.140625 266.128906 C 339.546875 267.375 340.859375 268.296875 341.585938 269.019531 C 343.160156 270.59375 344.738281 271.976562 346.511719 273.546875 C 348.019531 274.929688 350.382812 276.3125 349.398438 279.589844 C 349.074219 280.707031 348.085938 280.96875 347.367188 281.5625 C 347.234375 285.042969 346.707031 288.128906 346.378906 291.347656 C 345.921875 291.609375 345.589844 290.820312 345.195312 290.425781 C 344.804688 290.03125 344.34375 289.574219 343.949219 289.179688 C 343.75 289.046875 341.648438 286.617188 340.730469 287.539062 C 339.941406 288.324219 341.585938 289.636719 342.109375 290.101562 C 343.027344 291.015625 343.621094 291.542969 344.34375 292.199219 C 345.65625 293.378906 348.285156 295.285156 347.824219 297.257812 C 347.691406 298.042969 346.574219 298.441406 345.984375 298.765625 C 345.589844 301.328125 345.066406 303.824219 344.671875 306.386719 C 343.75 305.992188 343.09375 305.269531 341.976562 304.480469 C 341.324219 303.953125 339.285156 302.574219 338.890625 304.152344 C 338.496094 305.660156 341.257812 307.238281 341.976562 307.828125 C 342.566406 308.355469 343.160156 308.816406 343.816406 309.40625 C 344.34375 309.800781 345.523438 310.652344 345.589844 311.046875 C 345.71875 311.570312 345.066406 313.082031 344.933594 313.9375 C 343.75 321.226562 343.292969 327.921875 339.085938 332.191406 C 337.839844 313.21875 336.921875 293.910156 335.277344 275.058594 C 334.6875 276.109375 335.078125 277.425781 335.078125 278.605469 C 335.40625 298.898438 338.363281 340.796875 333.835938 356.753906 C 330.875 367.0625 322.011719 373.433594 311.765625 375.53125 C 306.640625 376.585938 300.988281 376.714844 294.292969 376.851562 C 293.632812 389.851562 294.292969 402.855469 294.683594 416.054688 C 295.273438 438.25 295.605469 460.640625 296.523438 482.773438 C 296.652344 485.597656 296.589844 489.207031 294.15625 489.078125 C 293.238281 489.011719 292.582031 488.550781 291.992188 488.160156 C 291.335938 487.695312 291.003906 486.78125 289.824219 486.910156 C 290.019531 489.472656 290.152344 496.496094 286.210938 494.136719 C 285.621094 493.738281 285.421875 493.285156 285.097656 492.492188 C 284.832031 491.769531 284.4375 491.046875 284.371094 490.390625 C 284.175781 488.878906 284.371094 487.042969 284.371094 485.335938 C 284.042969 464.054688 283.058594 442.78125 283.058594 421.503906 C 283.058594 419.796875 283.058594 418.085938 283.125 416.511719 C 283.1875 414.9375 283.058594 413.230469 283.515625 411.980469 C 283.710938 411.523438 284.898438 410.078125 285.621094 410.078125 C 287.785156 409.945312 287.785156 413.492188 287.988281 415.527344 C 288.25 418.21875 288.25 420.585938 288.378906 422.820312 C 288.707031 422.945312 289.101562 422.355469 289.824219 422.488281 C 289.824219 415.332031 289.628906 407.582031 289.628906 400.03125 C 289.628906 376.519531 264.140625 383.808594 264.46875 394.578125 C 265.125 418.550781 266.308594 486.648438 264.269531 486.910156 C 264.140625 488.160156 264.203125 489.207031 263.027344 489.207031 C 260.59375 489.140625 260.003906 439.628906 259.875 435.292969 C 259.480469 426.234375 259.34375 416.707031 258.886719 407.710938 C 258.886719 407.648438 257.835938 377.179688 257.898438 376.980469 C 246.667969 376.652344 225.125 378.554688 214.613281 375.402344 C 201.410156 371.527344 197.730469 362.535156 196.8125 352.152344 C 196.160156 343.882812 197.011719 335.871094 196.945312 327.859375 C 196.945312 326.675781 196.878906 325.5625 196.683594 324.511719 C 196.484375 323.660156 195.433594 322.472656 194.84375 321.554688 C 193.003906 318.730469 191.164062 314.984375 189.851562 311.964844 C 185.972656 302.902344 185.644531 293.578125 187.945312 284.058594 C 188.667969 280.96875 189 278.605469 190.175781 276.109375 C 191.097656 275.78125 191.6875 274.863281 192.742188 274.46875 C 193.988281 273.945312 195.566406 273.945312 196.683594 273.15625 C 195.957031 271.910156 195.171875 270.921875 194.121094 269.609375 C 192.9375 268.226562 190.902344 266.652344 191.097656 263.636719 C 191.230469 261.863281 191.753906 256.28125 192.609375 254.902344 C 193.394531 253.652344 196.945312 251.679688 199.046875 252.207031 C 197.664062 250.042969 193.597656 246.230469 193.464844 244.917969 C 193.265625 243.210938 193.859375 241.503906 194.121094 239.46875 C 194.316406 237.5625 194.382812 234.671875 195.761719 233.949219 C 196.089844 233.816406 201.804688 232.902344 201.933594 232.964844 C 201.34375 231.585938 200.292969 231.257812 198.914062 230.339844 C 193.265625 226.402344 195.304688 218.519531 198.980469 213.855469 C 200.097656 212.476562 202.328125 213.660156 203.773438 212.875 C 203.117188 212.082031 202.261719 211.230469 201.078125 210.902344 C 197.339844 210.242188 197.140625 204.925781 198.585938 201.179688 C 199.308594 199.015625 199.769531 196.910156 205.414062 197.636719 C 204.695312 196.714844 203.582031 195.734375 202.527344 194.613281 C 199.046875 190.742188 199.242188 181.742188 205.8125 180.167969 C 207.257812 179.90625 208.570312 179.707031 209.882812 179.382812 C 208.046875 177.871094 207.191406 177.210938 205.546875 174.980469 C 202.394531 170.515625 204.761719 161.253906 206.535156 156.394531 C 212.3125 140.964844 220.199219 138.597656 233.859375 133.542969 C 242.527344 130.328125 252.320312 128.027344 263.351562 127.105469 C 276.816406 125.988281 291.074219 127.105469 301.910156 130.523438 C 318.199219 135.710938 337.25 154.820312 346.835938 168.148438 Z M 340.730469 179.382812 C 320.496094 145.824219 300.007812 131.179688 254.289062 137.023438 C 243.316406 138.46875 217.109375 142.738281 211.59375 153.832031 C 210.277344 156.527344 206.796875 168.613281 208.242188 171.761719 C 214.746094 171.105469 224.203125 168.675781 231.101562 167.625 C 232.675781 167.359375 234.710938 166.902344 236.027344 167.292969 C 238.191406 167.953125 239.96875 172.617188 238.390625 175.242188 C 238.128906 175.703125 237.339844 176.425781 236.75 176.6875 C 234.582031 177.734375 231.757812 178.128906 228.933594 178.722656 C 221.839844 180.234375 213.890625 182.003906 206.730469 183.253906 C 202.328125 184.042969 202.464844 189.886719 204.105469 191.136719 C 210.804688 190.148438 218.09375 188.179688 224.992188 187.195312 C 228.210938 186.734375 233.269531 185.554688 234.777344 187.585938 C 235.4375 188.441406 235.699219 190.410156 235.5 191.660156 C 235.105469 194.550781 232.347656 194.816406 229.722656 195.53125 C 228.539062 195.863281 227.355469 196.191406 226.175781 196.386719 C 218.558594 197.4375 210.34375 199.015625 203.054688 200.066406 C 201.933594 201.839844 201.410156 205.320312 202.660156 207.289062 C 210.015625 206.371094 216.976562 204.992188 224.46875 204.199219 C 228.078125 202.234375 232.152344 204.402344 232.742188 207.488281 C 233.464844 211.425781 228.800781 213.066406 225.648438 213.660156 C 219.671875 214.839844 212.777344 214.839844 206.664062 215.628906 C 205.351562 215.828125 203.773438 215.828125 202.988281 216.15625 C 201.210938 216.875 199.636719 224.496094 201.019531 226.464844 C 205.21875 225.546875 209.953125 224.953125 214.484375 224.296875 C 215.925781 224.101562 217.964844 223.507812 219.210938 223.96875 C 220.984375 224.628906 221.445312 229.550781 220.589844 231.390625 C 219.082031 234.671875 212.839844 234.34375 208.632812 235 C 205.546875 235.527344 202.660156 236.183594 200.097656 236.578125 C 199.375 237.890625 198.125 239.46875 198.195312 241.375 C 198.253906 242.753906 199.046875 243.800781 199.441406 244.984375 C 206.335938 244.652344 213.167969 243.210938 219.867188 242.554688 C 221.839844 242.289062 225.125 241.503906 226.894531 242.226562 C 229.851562 243.472656 229.984375 251.089844 226.894531 252.339844 C 225.980469 252.664062 224.53125 252.730469 223.347656 252.929688 C 214.875 254.441406 205.617188 254.503906 197.46875 256.144531 C 195.695312 258.445312 195.894531 262.84375 197.207031 265.472656 C 204.5 265.40625 214.285156 262.714844 221.90625 263.371094 C 222.761719 263.433594 224.332031 264.617188 224.730469 265.210938 C 226.175781 267.511719 225.71875 270.855469 224.398438 272.171875 C 222.691406 273.945312 219.734375 274.273438 216.386719 274.601562 C 208.570312 275.195312 200.292969 275.320312 194.511719 277.6875 C 193.527344 279.855469 193.332031 282.484375 192.9375 285.171875 C 192.609375 287.929688 192.085938 290.691406 192.347656 293.515625 C 192.871094 299.097656 193.917969 304.28125 195.628906 308.484375 C 195.566406 304.871094 194.644531 300.800781 195.433594 297.78125 C 196.089844 295.417969 198.390625 293.316406 200.6875 292.984375 C 206.074219 292.199219 206.074219 297.257812 205.8125 301.984375 C 205.484375 309.277344 206.664062 314.660156 208.308594 320.242188 C 212.640625 334.949219 238.523438 336.59375 251.070312 337.710938 C 259.410156 338.5 269.261719 338.890625 277.871094 338.238281 C 282.597656 337.90625 288.707031 337.839844 287.066406 332.652344 C 285.421875 333.046875 282.992188 333.375 281.351562 333.636719 C 267.949219 335.34375 207.125 334.882812 210.148438 319.777344 C 210.476562 318.140625 212.640625 318.992188 213.757812 319.386719 C 212.839844 314.921875 210.410156 298.503906 212.96875 294.695312 C 214.550781 292.332031 218.425781 290.296875 222.234375 292.527344 C 224.136719 293.578125 224.203125 296.535156 224.007812 299.425781 C 223.808594 302.183594 223.875 305.132812 223.875 308.027344 C 223.875 310.851562 224.332031 313.542969 224.597656 316.167969 C 224.863281 318.730469 225.253906 321.421875 226.175781 323.523438 C 227.027344 325.628906 227.8125 327.921875 229.722656 328.777344 C 228.472656 326.019531 227.027344 322.472656 226.4375 318.664062 C 228.210938 318.925781 230.050781 319.125 231.886719 319.257812 C 230.578125 311.636719 227.6875 295.285156 234.914062 291.871094 C 238.0625 290.363281 241.808594 292.460938 242.132812 295.089844 C 242.335938 296.992188 242.003906 299.160156 242.003906 301.523438 C 241.9375 305.992188 242.070312 311.046875 242.726562 315.710938 C 243.121094 318.207031 246.140625 330.550781 249.359375 330.746094 C 248.3125 327.203125 246.339844 323.660156 245.613281 319.519531 C 248.175781 319.648438 250.871094 319.585938 253.566406 319.585938 C 251.464844 312.886719 249.164062 300.867188 251.660156 294.039062 C 252.382812 292.003906 256.585938 289.964844 259.609375 291.480469 C 260.527344 291.9375 261.511719 293.515625 262.039062 294.566406 C 264.46875 299.425781 257.441406 316.105469 268.738281 327.859375 C 269.59375 328.777344 270.710938 330.15625 272.613281 329.890625 C 272.679688 328.84375 271.691406 328.125 271.101562 327.398438 C 269.066406 325.164062 267.558594 322.210938 266.570312 319.386719 C 270.777344 319.058594 275.109375 318.796875 279.3125 318.46875 C 277.609375 314.722656 276.488281 309.734375 277.34375 304.542969 C 278.066406 300.472656 279.246094 294.957031 283.449219 294.039062 C 285.75 293.515625 288.839844 295.023438 290.875 293.910156 C 292.1875 293.25 292.847656 290.886719 293.304688 289.179688 C 293.960938 287.144531 294.355469 284.976562 294.554688 283.136719 C 296.128906 283.929688 297.707031 284.714844 299.214844 285.566406 C 300.660156 286.421875 302.105469 287.734375 303.75 287.929688 C 303.617188 286.949219 302.566406 286.421875 301.910156 285.828125 C 299.679688 283.859375 297.246094 282.484375 294.683594 280.96875 C 285.6875 275.71875 274.914062 271.644531 264.269531 271.382812 C 259.148438 271.25 253.238281 271.1875 248.113281 271.449219 C 244.304688 271.710938 239.96875 272.828125 237.800781 269.347656 C 236.160156 266.722656 237.339844 262.519531 240.035156 261.269531 C 241.414062 260.679688 243.453125 260.609375 245.289062 260.347656 C 253.761719 259.230469 261.839844 259.167969 269.527344 260.21875 C 278.066406 261.339844 286.144531 262.910156 294.027344 268.820312 C 294.554688 269.21875 295.207031 269.9375 295.605469 269.742188 C 295.933594 267.3125 296 265.40625 296.324219 262.910156 C 297.835938 263.699219 304.277344 267.179688 304.867188 267.773438 C 304.996094 265.996094 289.164062 256.019531 287.261719 255.226562 C 280.625 252.273438 272.875 250.371094 263.941406 249.976562 C 261.050781 249.777344 258.097656 249.976562 255.207031 250.042969 C 253.433594 250.109375 241.609375 250.761719 240.890625 250.566406 C 237.40625 249.644531 237.011719 240.058594 242.132812 240.191406 C 245.683594 240.125 262.4375 237.496094 274.453125 239.664062 C 279.441406 240.519531 283.582031 241.898438 287.457031 243.472656 C 290.875 244.785156 294.089844 246.757812 296.722656 248.792969 C 297.050781 249.054688 297.378906 249.578125 297.902344 249.453125 C 298.035156 247.285156 298.164062 245.113281 298.359375 243.015625 C 299.609375 243.667969 300.660156 244.652344 301.910156 245.441406 C 303.027344 246.167969 304.34375 247.152344 305.785156 246.953125 C 305.785156 245.441406 304.277344 244.519531 303.160156 243.667969 C 298.425781 239.992188 293.109375 235.59375 287.261719 233.425781 C 277.277344 229.617188 266.113281 228.761719 251.59375 229.75 C 250.082031 229.816406 247.390625 228.632812 246.667969 227.1875 C 245.222656 224.101562 247.0625 221.015625 249.230469 220.164062 C 253.171875 218.648438 259.742188 218.058594 265.453125 218.125 C 274.914062 218.257812 284.242188 220.355469 290.9375 223.640625 C 295.535156 225.875 299.609375 228.960938 299.609375 228.960938 C 300.070312 226.070312 300.203125 223.507812 300.660156 220.554688 C 301.976562 221.40625 303.355469 222.257812 304.667969 223.179688 C 305.847656 223.96875 307.164062 225.675781 308.804688 225.347656 C 308.9375 223.90625 307.363281 222.984375 306.4375 222.257812 C 289.101562 208.796875 277.804688 206.109375 255.539062 208.933594 C 253.433594 209.195312 250.542969 209.585938 248.113281 209.71875 C 245.351562 209.847656 243.1875 209.65625 242.335938 206.566406 C 241.742188 204.46875 242.792969 202.035156 244.304688 201.117188 C 251.136719 196.910156 267.226562 195.53125 280.957031 198.09375 C 289.429688 199.671875 296.652344 203.214844 301.382812 207.09375 C 301.449219 207.226562 301.910156 207.878906 301.910156 207.417969 C 302.304688 204.792969 302.433594 204.074219 302.828125 201.445312 C 305.324219 203.347656 307.953125 205.253906 310.449219 207.15625 C 311.238281 207.816406 311.894531 209.0625 313.140625 208.867188 C 313.535156 207.617188 312.09375 206.894531 311.367188 206.238281 C 291.730469 189.625 282.925781 186.800781 255.007812 190.085938 C 252.84375 190.542969 249.492188 191.464844 247.257812 190.804688 C 246.078125 190.480469 244.238281 188.640625 244.105469 187.527344 C 243.648438 184.761719 245.945312 182.140625 247.914062 181.546875 C 250.019531 180.890625 252.644531 180.628906 255.207031 180.296875 C 257.769531 179.96875 260.460938 179.644531 263.027344 179.445312 C 280.496094 178.460938 288.511719 178.128906 303.617188 188.441406 C 303.617188 185.878906 303.945312 183.714844 304.074219 181.351562 C 306.902344 183.324219 309.726562 185.683594 312.617188 187.851562 C 313.007812 188.113281 315.046875 190.148438 315.703125 189.164062 C 316.226562 188.3125 314.0625 186.933594 313.402344 186.410156 C 306.308594 180.035156 300.53125 175.441406 291.597656 171.960938 C 279.90625 167.492188 268.082031 169.265625 256.257812 171.628906 C 254.683594 171.960938 251.988281 172.945312 250.542969 172.878906 C 248.902344 172.746094 246.867188 171.171875 246.339844 169.660156 C 245.351562 166.769531 247.652344 163.882812 249.625 163.09375 C 255.335938 160.859375 271.757812 159.089844 277.542969 158.691406 C 287.457031 157.90625 294.882812 160.007812 303.160156 165.457031 C 303.8125 165.917969 304.472656 166.574219 304.996094 166.507812 C 304.996094 165.128906 304.996094 163.75 304.996094 162.371094 C 301.511719 159.8125 297.246094 157.25 293.109375 155.34375 C 290.347656 154.09375 284.042969 151.339844 289.628906 148.449219 C 291.335938 147.59375 293.5 147.265625 295.605469 147.464844 C 298.757812 147.660156 302.105469 149.238281 304.867188 150.550781 C 311.894531 153.769531 317.9375 158.238281 323.648438 162.894531 C 336.132812 173.140625 324.375 225.675781 327.066406 225.609375 C 329.363281 226.464844 334.164062 176.425781 334.226562 172.878906 C 336.523438 174.851562 338.628906 177.605469 340.730469 179.382812 Z M 310.25 265.40625 C 310.972656 290.363281 310.582031 316.566406 311.039062 341.449219 C 304.144531 344.535156 295.40625 345.589844 285.949219 345.984375 C 300.007812 354.257812 270.511719 358.984375 269.394531 359.246094 C 271.101562 359.445312 272.613281 361.347656 274.191406 361.613281 C 275.765625 361.941406 278.066406 361.613281 279.96875 361.546875 C 295.40625 360.828125 305.914062 362.535156 311.171875 345.523438 C 311.433594 360.691406 305.390625 364.4375 292.316406 364.4375 C 287.523438 364.4375 282.535156 364.242188 277.804688 364.300781 C 272.085938 364.4375 218.820312 366.144531 213.230469 363.777344 C 203.117188 361.023438 204.628906 346.574219 204.105469 342.699219 C 203.972656 342.175781 202.660156 341.257812 202.261719 340.796875 C 201.542969 340.070312 201.871094 339.089844 201.148438 339.285156 C 201.019531 340.402344 200.097656 349.132812 202.199219 356.949219 C 203.644531 362.335938 206.730469 367.328125 211.59375 368.835938 C 215.074219 369.953125 298.425781 370.085938 304.472656 368.113281 C 316.753906 364.105469 316.492188 350.582031 316.492188 340.007812 C 316.492188 330.617188 316.425781 319.976562 316.226562 310.71875 C 315.898438 296.207031 314.453125 256.410156 316.753906 243.40625 C 317.671875 238.414062 318.59375 237.039062 321.679688 235.136719 C 322.011719 234.871094 323.058594 234.671875 322.46875 234.476562 C 313.46875 235.988281 311.171875 243.996094 310.710938 252.402344 C 310.449219 256.933594 310.1875 261.601562 310.25 265.40625 Z M 324.375 254.902344 C 324.636719 257.261719 327.328125 260.8125 330.023438 258.90625 C 333.503906 256.410156 332.386719 252.011719 330.285156 250.042969 C 327.722656 247.675781 323.648438 248.460938 324.375 254.902344 Z M 322.273438 290.753906 C 321.613281 291.742188 320.695312 292.984375 320.5625 293.839844 C 320.167969 295.808594 320.757812 297.847656 320.628906 299.621094 C 322.601562 294.566406 326.015625 290.296875 328.578125 285.566406 C 331.140625 280.839844 333.242188 275.71875 336.199219 271.382812 C 331.140625 277.226562 326.738281 284.058594 322.273438 290.753906 Z M 322.207031 302.183594 C 321.679688 303.300781 320.628906 304.613281 320.429688 305.597656 C 320.234375 306.449219 320.496094 307.5 320.5625 308.484375 C 320.695312 311.703125 320.367188 314.527344 320.628906 317.613281 C 322.40625 316.300781 322.996094 313.742188 323.914062 311.246094 C 327.855469 300.933594 332.453125 289.636719 334.753906 278.277344 C 330.613281 286.550781 326.210938 293.644531 322.207031 302.183594 Z M 324.898438 346.703125 C 321.550781 352.878906 317.808594 358 315.113281 364.300781 C 314.324219 366.011719 313.074219 367.328125 312.484375 369.035156 C 318.199219 365.554688 322.074219 360.238281 325.621094 354.652344 C 329.101562 348.941406 331.46875 341.976562 331.992188 333.507812 C 331.992188 333.441406 331.992188 333.375 331.863281 333.375 C 329.761719 338.039062 327.199219 342.304688 324.898438 346.703125 Z M 274.785156 348.941406 C 270.382812 347.953125 265.980469 346.96875 261.710938 346.179688 C 259.542969 345.785156 257.308594 345 255.207031 344.734375 C 243.78125 343.160156 231.429688 342.636719 220.0625 341.257812 C 219.933594 348.679688 220.199219 359.3125 223.023438 362.535156 C 235.105469 362.140625 247.390625 362.597656 259.410156 362.140625 C 259.019531 361.480469 258.164062 360.691406 258.097656 359.445312 C 257.964844 357.804688 258.953125 356.621094 259.875 355.964844 C 260.855469 355.242188 262.496094 354.453125 264.074219 353.929688 C 267.886719 352.484375 273.269531 352.152344 278 351.828125 C 278.789062 351.828125 280.167969 352.21875 280.429688 351.105469 C 278.851562 350.054688 276.816406 349.398438 274.785156 348.941406 Z M 278.199219 436.214844 C 281.480469 435.421875 280.890625 443.566406 281.089844 446.65625 C 281.351562 451.121094 281.414062 455.257812 281.613281 459.199219 C 281.875 465.636719 282.007812 471.738281 282.207031 478.375 C 282.269531 480.800781 282.074219 482.839844 280.234375 482.902344 C 277.210938 482.96875 278.066406 476.074219 277.871094 472.59375 C 277.671875 468.457031 277.542969 464.644531 277.34375 460.25 C 277.015625 453.289062 276.753906 448.757812 276.753906 441.46875 C 276.753906 439.039062 276.421875 436.609375 278.199219 436.214844 Z M 279.113281 420.847656 C 278.722656 422.488281 279.839844 424.328125 278.984375 425.703125 C 278.199219 425.117188 276.617188 422.945312 276.753906 421.375 C 276.816406 420.1875 278.328125 419.597656 279.113281 420.847656 Z M 267.558594 413.953125 C 268.539062 413.824219 268.605469 415.988281 268.738281 417.5 C 269.722656 439.105469 269.460938 461.296875 270.972656 482.578125 C 271.101562 484.085938 272.019531 486.972656 269.65625 487.042969 C 267.355469 487.042969 265.648438 424.851562 267.296875 414.28125 C 267.355469 414.144531 267.425781 414.019531 267.558594 413.953125 Z M 268.410156 399.046875 C 267.488281 398.78125 266.832031 395.367188 268.738281 395.628906 C 269.59375 396.285156 269.003906 398.324219 268.410156 399.046875 Z M 281.613281 394.316406 C 281.613281 385.84375 290.152344 396.679688 286.734375 399.375 C 282.796875 402.527344 281.613281 397.597656 281.613281 394.316406 Z M 210.410156 281.757812 C 210.34375 282.152344 209.820312 282.222656 209.421875 282.28125 C 208.308594 282.484375 206.269531 282.484375 205.8125 281.957031 C 206.269531 280.445312 209.359375 281.367188 210.410156 281.757812 Z M 230.050781 281.300781 C 232.347656 277.03125 264.074219 276.441406 267.75 277.03125 C 269.59375 277.359375 271.628906 277.6875 273.535156 278.410156 C 274.914062 278.933594 277.542969 280.25 277.082031 281.957031 C 276.753906 283.136719 271.953125 281.824219 267.035156 281.234375 C 261.90625 280.574219 256.585938 280.574219 255.734375 280.574219 C 252.773438 280.574219 231.492188 282.085938 230.050781 281.300781 Z M 231.429688 219.964844 C 233.332031 219.765625 235.234375 221.605469 234.582031 224.167969 C 234.449219 224.757812 233.792969 225.347656 233.464844 226.070312 C 232.9375 226.992188 233.269531 227.382812 232.546875 227.777344 C 231.035156 228.566406 229.394531 227.382812 228.800781 226.464844 C 227.355469 224.035156 228.472656 220.292969 231.429688 219.964844 Z M 234.777344 215.828125 C 235.5 215.628906 236.683594 215.761719 237.273438 216.023438 C 240.691406 217.46875 242.527344 222.984375 240.890625 227.777344 C 239.773438 230.867188 237.605469 233.164062 235.304688 234.214844 C 233.464844 235.066406 227.882812 235.59375 228.078125 232.503906 C 228.144531 231.585938 228.800781 230.992188 229.523438 230.867188 C 230.96875 230.667969 231.625 231.789062 233.070312 231.585938 C 236.75 231.195312 238.390625 225.414062 236.554688 221.734375 C 236.160156 221.015625 235.4375 220.164062 234.914062 219.636719 C 234.253906 219.042969 233.332031 218.519531 233.332031 217.46875 C 233.332031 216.417969 233.925781 216.089844 234.777344 215.828125 Z M 277.476562 146.21875 C 279.441406 145.824219 281.089844 147.53125 279.707031 149.171875 C 278.851562 150.289062 274.785156 150.945312 274.386719 149.503906 C 273.929688 147.792969 276.355469 146.414062 277.476562 146.21875 Z M 262.757812 145.886719 C 264.269531 145.824219 268.671875 145.496094 268.605469 147.003906 C 268.605469 147.855469 266.832031 148.054688 265.851562 148.253906 C 262.4375 148.972656 258.886719 149.238281 255.539062 149.699219 C 245.613281 150.945312 233.464844 154.359375 223.742188 157.316406 C 222.953125 157.578125 222.101562 157.972656 220.984375 158.429688 C 220.128906 158.824219 218.488281 159.285156 217.898438 158.691406 C 216.386719 157.121094 219.539062 154.296875 220.394531 153.703125 C 228.539062 147.792969 252.84375 145.886719 262.496094 145.886719 C 262.628906 145.886719 262.628906 145.886719 262.757812 145.886719 " fill-opacity="1" fill-rule="evenodd"/></svg>