<svg xmlns="http://www.w3.org/2000/svg" version="1.1" xmlns:xlink="http://www.w3.org/1999/xlink" xmlns:svgjs="http://svgjs.com/svgjs" width="1440" height="560" preserveAspectRatio="none" viewBox="0 0 1440 560">
    <g mask="url(&quot;#SvgjsMask1067&quot;)" fill="none">
        <rect width="1440" height="560" x="0" y="0" fill="rgba(255, 255, 255, 1)"></rect>
        <g transform="translate(0, 0)" stroke-linecap="round">
            <path d="M210 231.28 L210 328.73" stroke-width="25.5" stroke="rgba(13, 220, 3, 1)"></path>
            <path d="M244 242.58 L244 317.42" stroke-width="25.5" stroke="rgba(13, 220, 3, 1)"></path>
            <path d="M278 205.16 L278 230.66" stroke-width="25.5" stroke="rgba(13, 220, 3, 1)"></path>
            <path d="M278 268.90999999999997 L278 354.84" stroke-width="25.5" stroke="rgba(253, 219, 16, 1)"></path>
            <path d="M312 206.13 L312 353.87" stroke-width="25.5" stroke="rgba(13, 220, 3, 1)"></path>
            <path d="M346 152.81 L346 305.81" stroke-width="25.5" stroke="rgba(13, 220, 3, 1)"></path>
            <path d="M346 344.06 L346 407.19" stroke-width="25.5" stroke="rgba(253, 219, 16, 1)"></path>
            <path d="M380 116.79 L380 218.79000000000002" stroke-width="25.5" stroke="rgba(253, 219, 16, 1)"></path>
            <path d="M380 257.04 L380 443.21" stroke-width="25.5" stroke="rgba(13, 220, 3, 1)"></path>
            <path d="M414 181.99 L414 378.01" stroke-width="25.5" stroke="rgba(13, 220, 3, 1)"></path>
            <path d="M448 206.84 L448 257.84000000000003" stroke-width="25.5" stroke="rgba(253, 219, 16, 1)"></path>
            <path d="M448 296.09000000000003 L448 353.15" stroke-width="25.5" stroke="rgba(13, 220, 3, 1)"></path>
            <path d="M482 152.51 L482 305.51" stroke-width="25.5" stroke="rgba(13, 220, 3, 1)"></path>
            <path d="M482 343.76 L482 407.49" stroke-width="25.5" stroke="rgba(253, 219, 16, 1)"></path>
            <path d="M516 133.75 L516 261.25" stroke-width="25.5" stroke="rgba(13, 220, 3, 1)"></path>
            <path d="M516 299.5 L516 325" stroke-width="25.5" stroke="rgba(253, 219, 16, 1)"></path>
            <path d="M516 363.25 L516 426.25" stroke-width="25.5" stroke="rgba(13, 220, 3, 1)"></path>
            <path d="M550 186.11 L550 211.61" stroke-width="25.5" stroke="rgba(253, 219, 16, 1)"></path>
            <path d="M550 249.86 L550 275.36" stroke-width="25.5" stroke="rgba(13, 220, 3, 1)"></path>
            <path d="M550 313.61 L550 373.89" stroke-width="25.5" stroke="rgba(253, 219, 16, 1)"></path>
            <path d="M584 94.7 L584 171.2" stroke-width="25.5" stroke="rgba(253, 219, 16, 1)"></path>
            <path d="M584 209.45 L584 465.3" stroke-width="25.5" stroke="rgba(253, 219, 16, 1)"></path>
            <path d="M618 227.72 L618 332.28" stroke-width="25.5" stroke="rgba(13, 220, 3, 1)"></path>
            <path d="M652 176.19 L652 252.69" stroke-width="25.5" stroke="rgba(253, 219, 16, 1)"></path>
            <path d="M652 290.94 L652 383.81" stroke-width="25.5" stroke="rgba(253, 219, 16, 1)"></path>
            <path d="M686 85.08 L686 238.07999999999998" stroke-width="25.5" stroke="rgba(13, 220, 3, 1)"></path>
            <path d="M686 276.33 L686 352.83" stroke-width="25.5" stroke="rgba(253, 219, 16, 1)"></path>
            <path d="M686 391.08 L686 474.92" stroke-width="25.5" stroke="rgba(13, 220, 3, 1)"></path>
            <path d="M720 170.41 L720 195.91" stroke-width="25.5" stroke="rgba(13, 220, 3, 1)"></path>
            <path d="M720 234.16 L720 285.15999999999997" stroke-width="25.5" stroke="rgba(253, 219, 16, 1)"></path>
            <path d="M720 323.40999999999997 L720 389.59" stroke-width="25.5" stroke="rgba(13, 220, 3, 1)"></path>
            <path d="M754 87.71 L754 317.21" stroke-width="25.5" stroke="rgba(253, 219, 16, 1)"></path>
            <path d="M754 355.46 L754 472.29" stroke-width="25.5" stroke="rgba(253, 219, 16, 1)"></path>
            <path d="M788 98.03 L788 251.03" stroke-width="25.5" stroke="rgba(13, 220, 3, 1)"></path>
            <path d="M788 289.28 L788 314.78" stroke-width="25.5" stroke="rgba(253, 219, 16, 1)"></path>
            <path d="M788 353.03 L788 461.97" stroke-width="25.5" stroke="rgba(13, 220, 3, 1)"></path>
            <path d="M822 217.4 L822 242.9" stroke-width="25.5" stroke="rgba(253, 219, 16, 1)"></path>
            <path d="M822 281.15 L822 342.6" stroke-width="25.5" stroke="rgba(13, 220, 3, 1)"></path>
            <path d="M856 84.84 L856 186.84" stroke-width="25.5" stroke="rgba(253, 219, 16, 1)"></path>
            <path d="M856 225.09 L856 475.16" stroke-width="25.5" stroke="rgba(13, 220, 3, 1)"></path>
            <path d="M890 160.71 L890 313.71000000000004" stroke-width="25.5" stroke="rgba(253, 219, 16, 1)"></path>
            <path d="M890 351.96000000000004 L890 399.29" stroke-width="25.5" stroke="rgba(253, 219, 16, 1)"></path>
            <path d="M924 206.61 L924 353.39" stroke-width="25.5" stroke="rgba(13, 220, 3, 1)"></path>
            <path d="M958 114.71 L958 445.29" stroke-width="25.5" stroke="rgba(253, 219, 16, 1)"></path>
            <path d="M992 145.61 L992 196.61" stroke-width="25.5" stroke="rgba(253, 219, 16, 1)"></path>
            <path d="M992 234.86 L992 414.39" stroke-width="25.5" stroke="rgba(253, 219, 16, 1)"></path>
            <path d="M1026 164.47 L1026 266.47" stroke-width="25.5" stroke="rgba(13, 220, 3, 1)"></path>
            <path d="M1026 304.72 L1026 330.22" stroke-width="25.5" stroke="rgba(253, 219, 16, 1)"></path>
            <path d="M1026 368.47 L1026 395.53" stroke-width="25.5" stroke="rgba(13, 220, 3, 1)"></path>
            <path d="M1060 234.19 L1060 325.81" stroke-width="25.5" stroke="rgba(13, 220, 3, 1)"></path>
            <path d="M1094 222.31 L1094 247.81" stroke-width="25.5" stroke="rgba(13, 220, 3, 1)"></path>
            <path d="M1094 286.06 L1094 337.69" stroke-width="25.5" stroke="rgba(13, 220, 3, 1)"></path>
            <path d="M1128 120.9 L1128 273.9" stroke-width="25.5" stroke="rgba(253, 219, 16, 1)"></path>
            <path d="M1128 312.15 L1128 439.1" stroke-width="25.5" stroke="rgba(253, 219, 16, 1)"></path>
            <path d="M1162 212.2 L1162 347.8" stroke-width="25.5" stroke="rgba(253, 219, 16, 1)"></path>
            <path d="M1196 88.81 L1196 165.31" stroke-width="25.5" stroke="rgba(253, 219, 16, 1)"></path>
            <path d="M1196 203.56 L1196 356.56" stroke-width="25.5" stroke="rgba(13, 220, 3, 1)"></path>
            <path d="M1196 394.81 L1196 471.19" stroke-width="25.5" stroke="rgba(253, 219, 16, 1)"></path>
            <path d="M1230 91.97 L1230 193.97" stroke-width="25.5" stroke="rgba(13, 220, 3, 1)"></path>
            <path d="M1230 232.22 L1230 468.02" stroke-width="25.5" stroke="rgba(13, 220, 3, 1)"></path>
        </g>
    </g>
    <defs>
        <mask id="SvgjsMask1067">
            <rect width="1440" height="560" fill="#ffffff"></rect>
        </mask>
    </defs>
</svg>